<svg xmlns="http://www.w3.org/2000/svg" xmlns:xlink="http://www.w3.org/1999/xlink" viewBox="0 0 2000 1000"><defs><style>.cls-1{fill:none;}.cls-2{isolation:isolate;}.cls-3{clip-path:url(#clip-path);}.cls-4{clip-path:url(#clip-path-3);}.cls-5{fill:url(#Ikke-navngivet_forløb_9);}.cls-6{clip-path:url(#clip-path-4);}.cls-7{fill:url(#Ikke-navngivet_forløb_9-2);}.cls-8{clip-path:url(#clip-path-5);}.cls-9{fill:url(#Ikke-navngivet_forløb_9-3);}.cls-10{clip-path:url(#clip-path-6);}.cls-11{mix-blend-mode:screen;}.cls-12{clip-path:url(#clip-path-7);}.cls-13{clip-path:url(#clip-path-8);}.cls-14{fill:url(#Ikke-navngivet_forløb_10);}.cls-15{mix-blend-mode:multiply;}.cls-16{clip-path:url(#clip-path-9);}.cls-17{clip-path:url(#clip-path-10);}.cls-18{fill:url(#Ikke-navngivet_forløb_11);}.cls-19{clip-path:url(#clip-path-11);}.cls-20{clip-path:url(#clip-path-12);}.cls-21{fill:url(#Ikke-navngivet_forløb_12);}.cls-22{clip-path:url(#clip-path-13);}.cls-23{clip-path:url(#clip-path-14);}.cls-24{fill:url(#Ikke-navngivet_forløb_14);}.cls-25{clip-path:url(#clip-path-15);}.cls-26{clip-path:url(#clip-path-16);}.cls-27{fill:url(#Ikke-navngivet_forløb_14-2);}.cls-28{clip-path:url(#clip-path-17);}.cls-29{fill:url(#Ikke-navngivet_forløb_9-4);}.cls-30{clip-path:url(#clip-path-19);}.cls-31{clip-path:url(#clip-path-20);}.cls-32{fill:url(#Ikke-navngivet_forløb_10-2);}.cls-33{clip-path:url(#clip-path-21);}.cls-34{clip-path:url(#clip-path-22);}.cls-35{fill:url(#Ikke-navngivet_forløb_11-2);}.cls-36{clip-path:url(#clip-path-23);}.cls-37{clip-path:url(#clip-path-24);}.cls-38{fill:url(#Ikke-navngivet_forløb_12-2);}.cls-39{clip-path:url(#clip-path-25);}.cls-40{clip-path:url(#clip-path-26);}.cls-41{fill:url(#Ikke-navngivet_forløb_14-3);}.cls-42{clip-path:url(#clip-path-27);}.cls-43{clip-path:url(#clip-path-28);}.cls-44{fill:url(#Ikke-navngivet_forløb_14-4);}.cls-45{font-size:370px;fill:#fff;font-family:HelveticaNeue-Medium, Helvetica Neue;font-weight:500;}</style><clipPath id="clip-path"><rect class="cls-1" x="-58.14" y="71.47" width="637.94" height="728.72"/></clipPath><clipPath id="clip-path-3"><path class="cls-1" d="M377.64,530.35a26.67,26.67,0,0,0,20,25.68,27.43,27.43,0,0,0,19.72-2.22c33.42-17.6,75.79-36.95,75.79-80.54C474.4,430,432.92,410.46,377.64,405.44Z"/></clipPath><linearGradient id="Ikke-navngivet_forløb_9" x1="-1.47" y1="0.48" x2="-1.14" y2="0.48" gradientTransform="matrix(353.09, -887.49, -887.49, -353.09, 1312.19, -491.89)" gradientUnits="userSpaceOnUse"><stop offset="0" stop-color="#00ffd7"/><stop offset="0.27" stop-color="#00cde5"/><stop offset="0.59" stop-color="#009af3"/><stop offset="0.83" stop-color="#007afc"/><stop offset="0.97" stop-color="#006eff"/><stop offset="1" stop-color="#006eff"/></linearGradient><clipPath id="clip-path-4"><path class="cls-1" d="M104.28,317.84c-33.43,17.6-75.79,36.94-75.79,80.54,18.77,43.31,60.25,62.8,115.53,67.83V341.29a26.66,26.66,0,0,0-20-25.67,27.49,27.49,0,0,0-7-.91,27.14,27.14,0,0,0-12.69,3.13"/></clipPath><linearGradient id="Ikke-navngivet_forløb_9-2" x1="2.11" y1="0.24" x2="2.44" y2="0.24" gradientTransform="matrix(-353.09, 887.49, 887.49, 353.09, 687.81, -1730.34)" xlink:href="#Ikke-navngivet_forløb_9"/><clipPath id="clip-path-5"><path class="cls-1" d="M28.49,578.61a85.61,85.61,0,0,0,43.26,74.54c50.08,28.38,130.36,25.07,222.05,9.87,29.15-4.83,50.49-29.69,50.49-58.75V518c0-36.45-33-64.37-69.65-58.9C156.42,476.74,60.16,471.45,28.49,398.38Z"/></clipPath><linearGradient id="Ikke-navngivet_forløb_9-3" x1="0.1" y1="-0.64" x2="0.42" y2="-0.64" gradientTransform="matrix(2104.87, 0.14, 0.14, -2104.87, -393.83, -803.53)" xlink:href="#Ikke-navngivet_forløb_9"/><clipPath id="clip-path-6"><rect class="cls-1" x="-58.14" y="71.47" width="637.94" height="728.72"/></clipPath><clipPath id="clip-path-7"><rect class="cls-1" x="28.49" y="398.38" width="315.8" height="177.28"/></clipPath><clipPath id="clip-path-8"><path class="cls-1" d="M71.75,558.6c45.09,25.55,203.31,20.85,272.54-3.76V518.29a21.34,21.34,0,0,1-.18-4.66,58.58,58.58,0,0,0-13.81-33.69h0c-.6-.7-1.22-1.39-1.84-2.07l-.22-.24q-.87-.92-1.77-1.8l-.42-.4c-.56-.54-1.14-1.07-1.72-1.59-.19-.17-.37-.34-.57-.5-.55-.49-1.12-.95-1.69-1.41l-.7-.57c-.55-.43-1.11-.84-1.68-1.25l-.82-.6-1.66-1.12-.94-.61c-.54-.33-1.08-.66-1.63-1l-1.06-.61q-.79-.45-1.62-.87l-1.16-.59c-.53-.26-1.06-.52-1.6-.76s-.83-.38-1.26-.56-1.05-.45-1.58-.66l-1.35-.52-1.57-.56L302,461.2l-1.56-.47-1.51-.4c-.51-.13-1-.27-1.55-.39l-1.58-.32-1.53-.3c-.55-.1-1.1-.17-1.65-.25s-1-.16-1.52-.22-1.16-.11-1.73-.17l-1.49-.13c-.61,0-1.22-.05-1.83-.08l-1.43-.05c-.65,0-1.31,0-2,0l-1.34,0c-.73,0-1.46.09-2.2.14l-1.13.08c-1.11.11-2.23.24-3.36.41C156.42,476.74,60.16,471.45,28.49,398.38v85.68A85.61,85.61,0,0,0,71.75,558.6"/></clipPath><linearGradient id="Ikke-navngivet_forløb_10" x1="1.23" y1="-0.31" x2="1.56" y2="-0.31" gradientTransform="matrix(-1868.09, -0.27, -0.27, 1868.09, 2903.07, 1063.91)" gradientUnits="userSpaceOnUse"><stop offset="0" stop-color="#fff"/><stop offset="0" stop-color="#fff"/><stop offset="0.45" stop-color="#8e8e8e"/><stop offset="1"/></linearGradient><clipPath id="clip-path-9"><rect class="cls-1" x="28.49" y="484.06" width="315.8" height="100.46"/></clipPath><clipPath id="clip-path-10"><path class="cls-1" d="M71.75,558.6a85.61,85.61,0,0,1-43.26-74.54v8.84a85.61,85.61,0,0,0,43.26,74.55c45.09,25.55,203.31,20.85,272.54-3.76v-8.85c-69.23,24.61-227.45,29.31-272.54,3.76"/></clipPath><linearGradient id="Ikke-navngivet_forløb_11" x1="2.18" y1="-0.73" x2="2.51" y2="-0.73" gradientTransform="matrix(0.15, 811.22, 811.22, -0.15, 775.73, -1441.87)" gradientUnits="userSpaceOnUse"><stop offset="0" stop-color="#9e8ddf"/><stop offset="0.12" stop-color="#9e8ddf"/><stop offset="0.32" stop-color="#b5a8e6"/><stop offset="1" stop-color="#fff"/></linearGradient><clipPath id="clip-path-11"><rect class="cls-1" x="28.49" y="478.16" width="315.8" height="97.51"/></clipPath><clipPath id="clip-path-12"><path class="cls-1" d="M71.75,552.7a85.61,85.61,0,0,1-43.26-74.54v5.9A85.61,85.61,0,0,0,71.75,558.6c45.09,25.55,203.31,20.85,272.54-3.76v-5.9c-69.23,24.61-227.45,29.31-272.54,3.76"/></clipPath><radialGradient id="Ikke-navngivet_forløb_12" cx="0" cy="0" r="1" gradientTransform="matrix(170.29, 0, 0, -167.43, 79.89, 684.36)" xlink:href="#Ikke-navngivet_forløb_10"/><clipPath id="clip-path-13"><rect class="cls-1" x="28.49" y="398.38" width="115.54" height="67.82"/></clipPath><clipPath id="clip-path-14"><path class="cls-1" d="M144,466.21l-.1-4.2c-85.55-3.22-115.43-63.63-115.43-63.63,18.77,43.31,60.25,62.8,115.53,67.83"/></clipPath><linearGradient id="Ikke-navngivet_forløb_14" x1="-0.98" y1="-1.41" x2="-0.66" y2="-1.41" gradientTransform="matrix(609.07, -432.25, -432.25, -609.07, -108.14, -723.88)" gradientUnits="userSpaceOnUse"><stop offset="0" stop-color="#9e8ddf"/><stop offset="0.12" stop-color="#9e8ddf"/><stop offset="1" stop-color="#fff"/></linearGradient><clipPath id="clip-path-15"><rect class="cls-1" x="28.49" y="391.29" width="115.54" height="74.91"/></clipPath><clipPath id="clip-path-16"><path class="cls-1" d="M28.9,391.29a62.85,62.85,0,0,0-.41,7.09c18.77,43.31,60.25,62.8,115.53,67.83v-29C81.27,443.73,41.77,406.75,28.9,391.29"/></clipPath><linearGradient id="Ikke-navngivet_forløb_14-2" x1="-1.74" y1="-0.66" x2="-1.41" y2="-0.66" gradientTransform="matrix(324.59, -583.86, -583.86, -324.59, 175.54, -633)" xlink:href="#Ikke-navngivet_forløb_14"/><clipPath id="clip-path-17"><path class="cls-1" d="M227.86,208.63c-29.15,4.83-50.48,29.69-50.48,58.75v86.27c0,36.44,33,64.37,69.64,58.9,118.22-17.65,214.48-12.36,246.16,60.72V293a85.6,85.6,0,0,0-43.27-74.54c-27-15.28-62.67-21.37-104.2-21.37-35.62,0-75.52,4.48-117.85,11.5"/></clipPath><linearGradient id="Ikke-navngivet_forløb_9-4" x1="0.81" y1="0.83" x2="1.12" y2="0.83" gradientTransform="matrix(-2104.87, -0.14, -0.14, 2104.87, 2401.41, -1415.04)" xlink:href="#Ikke-navngivet_forløb_9"/><clipPath id="clip-path-19"><rect class="cls-1" x="177.38" y="295.98" width="315.8" height="177.28"/></clipPath><clipPath id="clip-path-20"><path class="cls-1" d="M449.91,313.05c-45.09-25.55-203.3-20.85-272.53,3.76v36.55a21.34,21.34,0,0,1,.18,4.66,58.6,58.6,0,0,0,13.8,33.69h0c.59.7,1.21,1.39,1.84,2.06a2.5,2.5,0,0,0,.22.24c.57.62,1.17,1.21,1.77,1.8l.41.41c.56.54,1.14,1.07,1.72,1.58l.57.51c.55.48,1.12.95,1.69,1.41l.71.56c.55.43,1.11.85,1.67,1.26l.83.59c.54.39,1.09.76,1.65,1.12l.94.61c.54.34,1.09.67,1.64,1l1.05.61,1.62.87,1.16.59,1.6.76,1.26.56c.52.23,1.05.45,1.58.66l1.35.51c.52.2,1,.39,1.57.57l1.43.46,1.56.47,1.51.4,1.55.38c.52.12,1,.22,1.58.33s1,.21,1.54.3l1.65.25c.5.07,1,.15,1.52.21s1.15.12,1.73.17,1,.1,1.48.13,1.22.06,1.83.08,1,.05,1.43.05c.66,0,1.31,0,2,0,.44,0,.88,0,1.33,0,.73,0,1.47-.09,2.2-.15l1.13-.07c1.12-.11,2.24-.24,3.36-.41,118.22-17.65,214.48-12.36,246.16,60.72V387.59a85.6,85.6,0,0,0-43.27-74.54"/></clipPath><linearGradient id="Ikke-navngivet_forløb_10-2" x1="-0.43" y1="0.48" x2="-0.1" y2="0.48" gradientTransform="matrix(1868.09, 0.28, 0.28, -1868.09, 720.17, 1269.83)" xlink:href="#Ikke-navngivet_forløb_10"/><clipPath id="clip-path-21"><rect class="cls-1" x="177.38" y="287.14" width="315.8" height="100.45"/></clipPath><clipPath id="clip-path-22"><path class="cls-1" d="M449.91,313.05a85.6,85.6,0,0,1,43.27,74.54v-8.85a85.6,85.6,0,0,0-43.27-74.54c-45.09-25.55-203.3-20.85-272.53,3.76v8.85c69.23-24.61,227.44-29.31,272.53-3.76"/></clipPath><linearGradient id="Ikke-navngivet_forløb_11-2" x1="-1.62" y1="1.12" x2="-1.29" y2="1.12" gradientTransform="matrix(-0.15, -811.22, -811.22, 0.15, 1244.96, -770.38)" xlink:href="#Ikke-navngivet_forløb_11"/><clipPath id="clip-path-23"><rect class="cls-1" x="177.38" y="295.98" width="315.8" height="97.51"/></clipPath><clipPath id="clip-path-24"><path class="cls-1" d="M449.91,319a85.6,85.6,0,0,1,43.27,74.54v-5.9a85.6,85.6,0,0,0-43.27-74.54c-45.09-25.55-203.3-20.85-272.53,3.76v5.9C246.61,298.1,404.82,293.4,449.91,319"/></clipPath><radialGradient id="Ikke-navngivet_forløb_12-2" cx="0" cy="0" r="1" gradientTransform="matrix(-170.29, 0, 0, 167.43, 441.77, 187.28)" xlink:href="#Ikke-navngivet_forløb_10"/><clipPath id="clip-path-25"><rect class="cls-1" x="377.64" y="405.44" width="115.54" height="67.82"/></clipPath><clipPath id="clip-path-26"><path class="cls-1" d="M377.64,405.44l.1,4.2c85.55,3.22,115.44,63.63,115.44,63.63C474.4,430,432.92,410.46,377.64,405.44"/></clipPath><linearGradient id="Ikke-navngivet_forløb_14-3" x1="3.03" y1="0.82" x2="3.35" y2="0.82" gradientTransform="matrix(-609.07, 432.25, 432.25, 609.07, 2108.14, -1498.35)" xlink:href="#Ikke-navngivet_forløb_14"/><clipPath id="clip-path-27"><rect class="cls-1" x="377.64" y="405.44" width="115.54" height="74.91"/></clipPath><clipPath id="clip-path-28"><path class="cls-1" d="M492.76,480.36a62.82,62.82,0,0,0,.42-7.09C474.4,430,432.92,410.46,377.64,405.44v29c62.75-6.5,102.26,30.49,115.12,45.95"/></clipPath><linearGradient id="Ikke-navngivet_forløb_14-4" x1="3.39" y1="-0.34" x2="3.72" y2="-0.34" gradientTransform="matrix(-324.58, 583.86, 583.86, 324.58, 1824.46, -1589.22)" xlink:href="#Ikke-navngivet_forløb_14"/></defs><g class="cls-2"><g id="Lag_1" data-name="Lag 1"><g class="cls-3"><g class="cls-3"><g class="cls-4"><polygon class="cls-5" points="326.75 536.96 393.43 364.64 544.07 426.26 477.39 598.57 326.75 536.96"/></g><g class="cls-6"><polygon class="cls-7" points="194.64 335.41 128.24 507 -22.13 445.5 44.28 273.91 194.64 335.41"/></g><g class="cls-8"><rect class="cls-9" x="28.16" y="398" width="316.45" height="283.92" transform="matrix(1, 0, 0, 1, -1.32, 0.46)"/></g><g class="cls-10"><g class="cls-11"><g class="cls-12"><g class="cls-13"><rect class="cls-14" x="92.63" y="332.88" width="187.52" height="316.77" transform="translate(-305.85 675.07) rotate(-89.7)"/></g></g></g><g class="cls-15"><g class="cls-16"><g class="cls-17"><rect class="cls-18" x="28.13" y="482.94" width="316.52" height="111.18" transform="translate(-3.6 1.26) rotate(-0.38)"/></g></g></g><g class="cls-11"><g class="cls-19"><g class="cls-20"><rect class="cls-21" x="28.49" y="478.16" width="315.8" height="105.99"/></g></g></g><g class="cls-15"><g class="cls-22"><g class="cls-23"><polygon class="cls-24" points="-2.65 421.1 105.33 342.32 175.16 443.49 67.19 522.27 -2.65 421.1"/></g></g></g><g class="cls-15"><g class="cls-25"><g class="cls-26"><polygon class="cls-27" points="-2.46 448.52 55.77 340.85 174.97 408.98 116.75 516.65 -2.46 448.52"/></g></g></g></g><g class="cls-28"><rect class="cls-29" x="177.06" y="196.74" width="316.44" height="276.91" transform="translate(-0.82 0.82) rotate(-0.14)"/></g><g class="cls-10"><g class="cls-11"><g class="cls-30"><g class="cls-31"><rect class="cls-32" x="241.52" y="222" width="187.52" height="316.77" transform="translate(-46.86 713.66) rotate(-89.7)"/></g></g></g><g class="cls-15"><g class="cls-33"><g class="cls-34"><rect class="cls-35" x="177.02" y="277.53" width="316.52" height="111.18" transform="translate(-2.22 2.25) rotate(-0.38)"/></g></g></g><g class="cls-11"><g class="cls-36"><g class="cls-37"><rect class="cls-38" x="177.38" y="287.5" width="315.8" height="105.99"/></g></g></g><g class="cls-15"><g class="cls-39"><g class="cls-40"><polygon class="cls-41" points="524.31 450.55 416.34 529.33 346.5 428.16 454.48 349.38 524.31 450.55"/></g></g></g><g class="cls-15"><g class="cls-42"><g class="cls-43"><polygon class="cls-44" points="524.12 423.13 465.9 530.8 346.69 462.67 404.92 355 524.12 423.13"/></g></g></g></g></g></g><text class="cls-45" transform="translate(559.37 574.76) scale(0.93 1)">Softcorp</text></g></g></svg>