<svg id="Lag_1" data-name="Lag 1" xmlns="http://www.w3.org/2000/svg" xmlns:xlink="http://www.w3.org/1999/xlink" viewBox="0 0 2000 1000"><defs><style>.cls-1{fill:none;}.cls-2{font-size:370px;font-family:HelveticaNeue-Medium, Helvetica Neue;font-weight:500;}.cls-2,.cls-5{fill:#fff;}.cls-3{clip-path:url(#clip-path);}.cls-4{clip-path:url(#clip-path-2);}</style><clipPath id="clip-path"><rect class="cls-1" x="-39.1" y="122.37" width="648.89" height="777.89"/></clipPath><clipPath id="clip-path-2"><rect class="cls-1" x="-39.1" y="122.37" width="648.89" height="777.89"/></clipPath></defs><text class="cls-2" transform="translate(625.36 640.32) scale(0.93 1)">Softcorp</text><g class="cls-3"><g class="cls-4"><path class="cls-5" d="M164.55,553l-.61,0c-65.06-6.21-105.95-31.74-125-78a6.94,6.94,0,0,1-.54-2.71c0-48.81,42-71.86,75.7-90.37l6.2-3.41a33.4,33.4,0,0,1,25.27-3c15.11,4.2,25.66,18.44,25.66,34.63V546a7,7,0,0,1-2.18,5.11,6.56,6.56,0,0,1-4.5,1.8M51.76,470.8c16.49,38.66,51.26,60.81,106.12,67.57V410a22,22,0,0,0-15.77-21.28,20.48,20.48,0,0,0-15.5,1.83h0L120.36,394c-31.79,17.45-67.76,37.2-68.6,76.77m71.69-86.3h0Z"/><path class="cls-5" d="M196.82,779.85c-47.48,0-83.12-8-110.34-24.28C56.83,737.88,38.4,704.48,38.4,668.43V472.19a6.84,6.84,0,0,1,5.34-6.76,6.57,6.57,0,0,1,7.48,4.05c27,65.54,103.29,84.62,247.4,62A67.47,67.47,0,0,1,354.18,548a72.79,72.79,0,0,1,24.14,54.43v93.94c0,35.17-24.3,64.94-57.77,70.78-48.37,8.44-89.19,12.7-123.73,12.7M51.75,498.39v170c0,31.13,15.87,59.94,41.4,75.17,43.54,26,115.09,29.14,225.17,9.92,27-4.72,46.65-28.75,46.65-57.15V602.43a58.8,58.8,0,0,0-19.49-43.95,54.57,54.57,0,0,0-44.85-13.34C208.34,559.65,99.7,566.33,51.75,498.39"/><path class="cls-5" d="M207.05,672.11c-51.07,0-97.94-6-120.56-19.48h0C56.82,634.94,38.4,601.54,38.4,565.48V472.19a6.84,6.84,0,0,1,5.34-6.76,6.57,6.57,0,0,1,7.48,4.05c27,65.53,103.3,84.64,247.4,62,1.28-.2,2.54-.36,3.81-.48.09,0,.76-.07.84-.07,1.32-.1,2.17-.17,3-.21l1.2,0c1.26,0,1.93,0,2.58,0l8.61.69.93.15,2.94.54c.94.2,1.55.32,2.14.47l6.88,2.06c.56.19,1.19.43,1.81.68l4.83,2.11c.58.27,1.21.59,1.83.91l3.12,1.73.62.37.63.38,3,2c.61.42,1.24.87,1.87,1.33l1,.74c.59.46,1.24,1,1.87,1.47l.82.7c.64.55,1.27,1.1,1.91,1.68l.69.64c.65.61,1.29,1.23,1.92,1.87,1.15,1.18,1.83,1.91,2.49,2.65,1,1.12,1.69,1.94,2.38,2.81a72.5,72.5,0,0,1,15.8,40.59,7.53,7.53,0,0,1,0,1,17.21,17.21,0,0,0,.12,3.57,7.42,7.42,0,0,1,.08,1v39.8a6.91,6.91,0,0,1-4.4,6.5c-38.77,14.51-105.82,23.06-166.87,23.06M93.15,640.65c41.95,25,196.62,23,271.82-3V603.25a32.19,32.19,0,0,1-.2-5.51,58.52,58.52,0,0,0-12.72-32.32c-.56-.7-1.13-1.37-1.7-2-.73-.82-1.27-1.4-1.83-2l-4.11-3.85,3.53-5.93-4.16,5.41-6.24-4.47,2.35-6.58-3.3,6-13.52-5.68-5.44-1.18.1-7-1,6.84-6.88-.55-1.47,0h-1.57c-.71,0-1.37.09-2,.14l-.71.06c-1.37.13-2.42.25-3.46.42C208.34,559.65,99.7,566.33,51.75,498.39v67.09c0,31.13,15.87,59.94,41.4,75.17Z"/><path class="cls-5" d="M525.61,560.64a6.7,6.7,0,0,1-6.15-4.2c-27-65.52-103.28-84.65-247.4-62a67.54,67.54,0,0,1-55.55-16.52,72.82,72.82,0,0,1-24.14-54.44V329.56c0-35.17,24.29-64.94,57.76-70.78C365,238.72,437.18,242.29,484.2,270.35c29.66,17.69,48.08,51.09,48.08,87.15V553.73A6.84,6.84,0,0,1,527,560.5a6.17,6.17,0,0,1-1.34.14M373.42,471.28c59.85,0,115,13,145.52,56.25v-170c0-31.13-15.87-59.94-41.4-75.17-43.56-26-115.13-29.14-225.18-9.92-27,4.72-46.64,28.75-46.64,57.15v93.93a58.83,58.83,0,0,0,19.49,44,54.52,54.52,0,0,0,44.84,13.34c33.52-5.27,69.22-9.51,103.37-9.51"/><path class="cls-5" d="M525.61,560.64a6.7,6.7,0,0,1-6.15-4.2c-27-65.52-103.28-84.65-247.4-62-1.29.21-2.56.37-3.85.49l-.86.07-.93-6.86,0,6.94-5.78.18-5.08-.28-.35-7-.63,6.88-1.4-.15c-.55-.07-1.16-.16-1.77-.26l-8.92-2c-.61-.19-1.24-.39-1.85-.6l-4.86-1.8c-.68-.29-1.3-.57-1.91-.85L229.36,487c-.65-.35-1.27-.71-1.88-1.07l-4.15-2.65c-.61-.41-1.24-.87-1.87-1.33l-1-.72c-.65-.51-1.29-1-1.92-1.52l-.84-.72c-.61-.52-1.28-1.09-1.92-1.69l-.69-.65c-.6-.55-1.27-1.19-1.92-1.86-1.14-1.18-1.81-1.89-2.47-2.62-1-1.11-1.67-1.94-2.36-2.78a72.68,72.68,0,0,1-15.81-40.62,7.37,7.37,0,0,1,0-.94,16.56,16.56,0,0,0-.13-3.58,9.1,9.1,0,0,1-.07-1.05v-39.8a6.91,6.91,0,0,1,4.4-6.5c71.19-26.66,237.77-33.22,287.43-3.59h0c29.65,17.7,48.07,51.09,48.07,87.16v93.28A6.84,6.84,0,0,1,527,560.5a6.17,6.17,0,0,1-1.34.14M373.42,471.28c59.85,0,115,13,145.52,56.25V460.45c0-31.14-15.87-59.95-41.4-75.18-42-25-196.63-22.94-271.82,3v34.38a31.19,31.19,0,0,1,.19,5.51,58.62,58.62,0,0,0,12.73,32.33c.55.67,1.12,1.35,1.7,2,.74.83,1.29,1.41,1.85,2,.91.92,1.43,1.42,1.95,1.91l-3.87,5.69,4.45-5.15c.49.45,1,.9,1.52,1.32l10.41,7L249,480l6.85,1.18,1,.1,4,.21,1.81,0,1.51,6.88-.29-6.9,2.64-.19c1.5-.14,2.53-.27,3.56-.43,33.52-5.27,69.22-9.51,103.37-9.51"/><path class="cls-5" d="M434.14,651.75a34,34,0,0,1-9-1.23c-15.11-4.2-25.66-18.44-25.66-34.63v-136a7,7,0,0,1,2.18-5.1,6.34,6.34,0,0,1,5.11-1.78c65.06,6.22,106,31.75,125,78a7.19,7.19,0,0,1,.53,2.71c0,48.82-42,71.87-75.7,90.38l-6.19,3.41a33.33,33.33,0,0,1-16.25,4.23m13.1-10.32h0ZM412.81,487.56V615.89a21.94,21.94,0,0,0,15.77,21.27,20.45,20.45,0,0,0,15.5-1.82l6.25-3.44c31.78-17.45,67.76-37.2,68.59-76.77-16.49-38.66-51.25-60.81-106.11-67.57"/></g></g></svg>