<svg xmlns="http://www.w3.org/2000/svg" xmlns:xlink="http://www.w3.org/1999/xlink" viewBox="0 0 2000 2222.22"><defs><style>.cls-1{isolation:isolate;}.cls-2{fill:url(#linear-gradient);}.cls-3{fill:url(#linear-gradient-2);}.cls-4{fill:url(#linear-gradient-3);}.cls-11,.cls-13,.cls-5,.cls-7{mix-blend-mode:screen;}.cls-5{fill:url(#linear-gradient-4);}.cls-12,.cls-14,.cls-15,.cls-6,.cls-8,.cls-9{mix-blend-mode:multiply;}.cls-6{fill:url(#linear-gradient-5);}.cls-7{fill:url(#radial-gradient);}.cls-8{fill:url(#linear-gradient-6);}.cls-9{fill:url(#linear-gradient-7);}.cls-10{fill:url(#linear-gradient-8);}.cls-11{fill:url(#linear-gradient-9);}.cls-12{fill:url(#linear-gradient-10);}.cls-13{fill:url(#radial-gradient-2);}.cls-14{fill:url(#linear-gradient-11);}.cls-15{fill:url(#linear-gradient-12);}</style><linearGradient id="linear-gradient" x1="1689.8" y1="1997.21" x2="812.57" y2="2375.09" gradientTransform="translate(3919.27 1947.71) rotate(135)" gradientUnits="userSpaceOnUse"><stop offset="0" stop-color="#00ffd7"/><stop offset="0.27" stop-color="#00cde5"/><stop offset="0.59" stop-color="#009af3"/><stop offset="0.83" stop-color="#007afc"/><stop offset="0.97" stop-color="#006eff"/></linearGradient><linearGradient id="linear-gradient-2" x1="1752.41" y1="303.81" x2="875.18" y2="681.69" gradientTransform="translate(-766.14 1516.19) rotate(-45)" xlink:href="#linear-gradient"/><linearGradient id="linear-gradient-3" x1="-1153.05" y1="3506.48" x2="951.82" y2="3501.48" gradientTransform="translate(755.94 -2086.36)" xlink:href="#linear-gradient"/><linearGradient id="linear-gradient-4" x1="17.33" y1="2086.21" x2="7.26" y2="3954.27" gradientTransform="translate(755.94 -2086.36)" gradientUnits="userSpaceOnUse"><stop offset="0" stop-color="#fff"/><stop offset="0.45" stop-color="#8e8e8e"/><stop offset="1"/></linearGradient><linearGradient id="linear-gradient-5" x1="6.51" y1="2862.82" x2="12.1" y2="3674.01" gradientTransform="translate(755.94 -2086.36)" gradientUnits="userSpaceOnUse"><stop offset="0.12" stop-color="#9e8ddf"/><stop offset="0.32" stop-color="#b5a8e6"/><stop offset="1" stop-color="#fff"/></linearGradient><radialGradient id="radial-gradient" cx="-217.01" cy="3374.3" r="281.71" gradientTransform="translate(844 -4246.66) scale(1.9 1.81)" xlink:href="#linear-gradient-4"/><linearGradient id="linear-gradient-6" x1="-864.08" y1="3584.71" x2="-255" y2="3152.47" gradientTransform="translate(755.94 -2086.36)" gradientUnits="userSpaceOnUse"><stop offset="0.12" stop-color="#9e8ddf"/><stop offset="1" stop-color="#fff"/></linearGradient><linearGradient id="linear-gradient-7" x1="-580.4" y1="3675.59" x2="-255.81" y2="3091.73" xlink:href="#linear-gradient-6"/><linearGradient id="linear-gradient-8" x1="0.05" y1="4748.12" x2="2104.91" y2="4743.12" gradientTransform="translate(2397.19 5550.26) rotate(180)" xlink:href="#linear-gradient"/><linearGradient id="linear-gradient-9" x1="1170.46" y1="3327.89" x2="1160.38" y2="5195.95" gradientTransform="translate(2397.19 5550.26) rotate(180)" xlink:href="#linear-gradient-4"/><linearGradient id="linear-gradient-10" x1="1159.64" y1="4104.49" x2="1165.22" y2="4915.69" gradientTransform="translate(2397.19 5550.26) rotate(180)" xlink:href="#linear-gradient-5"/><radialGradient id="radial-gradient-2" cx="1259.6" cy="5098.69" r="281.71" gradientTransform="translate(3954.38 9594.23) rotate(180) scale(1.9 1.81)" xlink:href="#linear-gradient-4"/><linearGradient id="linear-gradient-11" x1="289.05" y1="4826.39" x2="898.12" y2="4394.14" gradientTransform="translate(2397.19 5550.26) rotate(180)" xlink:href="#linear-gradient-6"/><linearGradient id="linear-gradient-12" x1="572.73" y1="4917.27" x2="897.31" y2="4333.41" gradientTransform="translate(2397.19 5550.26) rotate(180)" xlink:href="#linear-gradient-6"/></defs><g class="cls-1"><g id="Elements"><g id="Element"><path class="cls-2" d="M1490.82,1470.91c104.79-53.67,237.61-112.67,237.61-245.62-58.86-132.08-188.9-191.51-362.22-206.83v380.92c0,36.68,25.75,68.79,62.8,78.29h0A87.91,87.91,0,0,0,1490.82,1470.91Z"/><path class="cls-3" d="M509.18,751.31C404.39,805,271.57,864,271.57,996.93c58.86,132.09,188.9,191.51,362.22,206.83V822.85c0-36.68-25.75-68.79-62.8-78.3h0A88,88,0,0,0,509.18,751.31Z"/><path class="cls-4" d="M1043.31,1182.09c-370.65,53.81-672.44,37.67-771.74-185.16v549.59c0,93.38,51,180.7,135.64,227.32,157,86.54,408.7,76.47,696.16,30.11,91.38-14.74,158.27-90.55,158.27-179.17V1361.7C1261.64,1250.57,1158.19,1165.41,1043.31,1182.09Z"/><path class="cls-5" d="M407.21,1485.51c141.36,77.92,637.39,63.59,854.43-11.47V1362.59a63,63,0,0,1-.56-14.21,176.25,176.25,0,0,0-43.29-102.75v0q-2.8-3.21-5.77-6.3l-.69-.73c-1.8-1.87-3.66-3.69-5.55-5.49-.43-.41-.85-.83-1.29-1.24-1.76-1.65-3.57-3.25-5.4-4.83-.59-.51-1.18-1-1.78-1.55-1.74-1.46-3.52-2.88-5.31-4.29-.73-.57-1.46-1.16-2.21-1.72-1.72-1.31-3.47-2.58-5.24-3.83-.86-.61-1.72-1.22-2.59-1.81-1.71-1.17-3.44-2.3-5.18-3.41-1-.63-2-1.25-3-1.86-1.68-1-3.39-2-5.11-3-1.1-.63-2.21-1.24-3.32-1.85-1.67-.91-3.37-1.8-5.07-2.66-1.2-.61-2.41-1.21-3.63-1.79q-2.49-1.2-5-2.33c-1.3-.58-2.62-1.14-4-1.7-1.64-.69-3.3-1.37-5-2-1.4-.54-2.81-1.06-4.22-1.57-1.64-.59-3.28-1.17-4.94-1.72-1.48-.49-3-1-4.49-1.41s-3.24-1-4.88-1.43-3.15-.83-4.74-1.22-3.22-.81-4.85-1.17-3.3-.68-4.95-1-3.2-.64-4.82-.91-3.44-.52-5.17-.77-3.17-.46-4.77-.65c-1.79-.21-3.61-.36-5.41-.52-1.56-.13-3.11-.3-4.67-.4-1.9-.12-3.81-.17-5.72-.24-1.5,0-3-.13-4.5-.15-2,0-4.1,0-6.16.07-1.39,0-2.78,0-4.18.06-2.29.09-4.6.28-6.9.45-1.18.08-2.36.13-3.55.24-3.49.32-7,.73-10.51,1.24-370.65,53.81-672.44,37.67-771.74-185.16V1258.2C271.57,1351.57,322.61,1438.89,407.21,1485.51Z"/><path class="cls-6" d="M407.21,1485.51c-84.6-46.62-135.64-133.94-135.64-227.31v27c0,93.38,51,180.69,135.64,227.32,141.36,77.92,637.39,63.58,854.43-11.47v-27C1044.6,1549.1,548.57,1563.43,407.21,1485.51Z"/><path class="cls-7" d="M407.21,1467.52c-84.6-46.62-135.64-133.94-135.64-227.32v18c0,93.37,51,180.69,135.64,227.31,141.36,77.92,637.39,63.59,854.43-11.47v-18C1044.6,1531.11,548.57,1545.44,407.21,1467.52Z"/><path class="cls-8" d="M633.79,1203.76l-.32-12.79c-268.21-9.83-361.9-194-361.9-194C330.43,1129,460.47,1188.44,633.79,1203.76Z"/><path class="cls-9" d="M272.87,975.31a189.53,189.53,0,0,0-1.3,21.62c58.86,132.09,188.9,191.51,362.22,206.83v-88.34C437.05,1135.24,313.2,1022.44,272.87,975.31Z"/><path class="cls-10" d="M956.69,1040.13c370.65-53.81,672.44-37.67,771.74,185.16V675.7c0-93.38-51-180.69-135.64-227.32-157-86.54-408.7-76.46-696.16-30.1C805.25,433,738.36,508.82,738.36,597.44V860.53C738.36,971.65,841.81,1056.81,956.69,1040.13Z"/><path class="cls-11" d="M1592.79,736.71c-141.36-77.92-637.39-63.59-854.43,11.47V859.63a63,63,0,0,1,.56,14.21,176.22,176.22,0,0,0,43.29,102.75v0c1.87,2.15,3.8,4.24,5.77,6.3l.69.74c1.8,1.87,3.66,3.68,5.55,5.48.43.41.85.83,1.29,1.24,1.76,1.65,3.57,3.25,5.4,4.83.59.52,1.18,1,1.78,1.55,1.74,1.46,3.52,2.88,5.31,4.29.73.58,1.46,1.16,2.21,1.72,1.72,1.31,3.47,2.58,5.24,3.83.86.61,1.72,1.22,2.59,1.82,1.71,1.16,3.44,2.29,5.18,3.41,1,.62,2,1.25,3,1.86,1.68,1,3.39,2,5.11,3,1.1.63,2.21,1.25,3.32,1.85,1.67.91,3.37,1.8,5.07,2.66,1.2.61,2.41,1.21,3.63,1.79q2.49,1.2,5,2.33c1.3.58,2.62,1.15,3.95,1.7,1.64.69,3.3,1.37,5,2,1.4.54,2.81,1,4.22,1.56,1.64.59,3.28,1.17,4.94,1.72,1.48.49,3,1,4.49,1.41s3.24,1,4.88,1.43,3.15.83,4.74,1.22,3.22.81,4.85,1.17,3.3.68,5,1,3.2.64,4.82.91,3.44.53,5.17.77,3.17.47,4.77.65c1.79.21,3.61.36,5.41.52,1.56.14,3.11.3,4.67.4,1.9.12,3.81.17,5.72.24,1.5,0,3,.14,4.5.15,2,0,4.1,0,6.16-.06,1.39,0,2.78,0,4.18-.07,2.29-.09,4.6-.27,6.9-.44,1.18-.09,2.36-.13,3.55-.24,3.49-.33,7-.74,10.51-1.25,370.65-53.81,672.44-37.67,771.74,185.16V964C1728.43,870.65,1677.39,783.34,1592.79,736.71Z"/><path class="cls-12" d="M1592.79,736.71c84.6,46.63,135.64,133.94,135.64,227.32V937c0-93.38-51-180.69-135.64-227.32-141.36-77.92-637.39-63.58-854.43,11.47v27C955.4,673.12,1451.43,658.79,1592.79,736.71Z"/><path class="cls-13" d="M1592.79,754.7c84.6,46.63,135.64,133.94,135.64,227.32V964c0-93.38-51-180.69-135.64-227.32-141.36-77.92-637.39-63.59-854.43,11.47v18C955.4,691.12,1451.43,676.78,1592.79,754.7Z"/><path class="cls-14" d="M1366.21,1018.46l.32,12.79c268.21,9.84,361.9,194,361.9,194C1669.57,1093.21,1539.53,1033.78,1366.21,1018.46Z"/><path class="cls-15" d="M1727.13,1246.91a189.53,189.53,0,0,0,1.3-21.62c-58.86-132.08-188.9-191.51-362.22-206.83v88.34C1563,1087,1686.8,1199.78,1727.13,1246.91Z"/></g></g></g></svg>