<?xml version="1.0" encoding="UTF-8" standalone="no"?>
<svg
   version="1.1"
   id="svg2"
   xml:space="preserve"
   width="300"
   height="300"
   viewBox="0 0 300 300"
   sodipodi:docname="nuntio.svg"
   inkscape:version="1.1.2 (b8e25be8, 2022-02-05)"
   inkscape:export-filename="/Users/oscarorellana/bitmap.png"
   inkscape:export-xdpi="1135"
   inkscape:export-ydpi="1135"
   xmlns:inkscape="http://www.inkscape.org/namespaces/inkscape"
   xmlns:sodipodi="http://sodipodi.sourceforge.net/DTD/sodipodi-0.dtd"
   xmlns:xlink="http://www.w3.org/1999/xlink"
   xmlns="http://www.w3.org/2000/svg"
   xmlns:svg="http://www.w3.org/2000/svg"
   xmlns:rdf="http://www.w3.org/1999/02/22-rdf-syntax-ns#"
   xmlns:cc="http://creativecommons.org/ns#"
   xmlns:dc="http://purl.org/dc/elements/1.1/"><metadata
     id="metadata8"><rdf:RDF><cc:Work
         rdf:about=""><dc:format>image/svg+xml</dc:format><dc:type
           rdf:resource="http://purl.org/dc/dcmitype/StillImage" /><dc:title /></cc:Work></rdf:RDF></metadata><defs
     id="defs6"><linearGradient
       inkscape:collect="always"
       id="linearGradient9976"><stop
         style="stop-color:#f27121;stop-opacity:1"
         offset="0"
         id="stop9972" /><stop
         style="stop-color:#dd005b;stop-opacity:1"
         offset="1"
         id="stop9974" /></linearGradient><linearGradient
       inkscape:collect="always"
       id="linearGradient9714"><stop
         style="stop-color:#f8ca0c;stop-opacity:1"
         offset="0"
         id="stop9710" /><stop
         style="stop-color:#f76807;stop-opacity:1"
         offset="1"
         id="stop9712" /></linearGradient><linearGradient
       inkscape:collect="always"
       id="linearGradient888"><stop
         style="stop-color:#fc9446;stop-opacity:1"
         offset="0"
         id="stop884" /><stop
         style="stop-color:#eb0d10;stop-opacity:1"
         offset="1"
         id="stop886" /></linearGradient><linearGradient
       inkscape:collect="always"
       id="linearGradient882"><stop
         style="stop-color:#fc9446;stop-opacity:1"
         offset="0"
         id="stop878" /><stop
         style="stop-color:#eb0d10;stop-opacity:1"
         offset="1"
         id="stop880" /></linearGradient><linearGradient
       inkscape:collect="always"
       id="linearGradient870"><stop
         style="stop-color:#fc9446;stop-opacity:1"
         offset="0"
         id="stop866" /><stop
         style="stop-color:#eb0d10;stop-opacity:1"
         offset="1"
         id="stop868" /></linearGradient><clipPath
       clipPathUnits="userSpaceOnUse"
       id="clipPath22"><path
         d="m 1270,953.18 h 1960 v 288.59 H 1270 Z"
         id="path20" /></clipPath><radialGradient
       fx="-0.25077999"
       fy="0.021521"
       cx="0"
       cy="0"
       r="1"
       gradientUnits="userSpaceOnUse"
       gradientTransform="matrix(943.753,0,0,-150.295,2250,1097.48)"
       spreadMethod="pad"
       id="radialGradient30"><stop
         style="stop-opacity:1;stop-color:#d4d4d4"
         offset="0"
         id="stop24" /><stop
         style="stop-opacity:1;stop-color:#f2f2f2"
         offset="0.467742"
         id="stop26" /><stop
         style="stop-opacity:1;stop-color:#ffffff"
         offset="1"
         id="stop28" /></radialGradient><clipPath
       clipPathUnits="userSpaceOnUse"
       id="clipPath40"><path
         d="m 1556.35,2576.02 -318.44,-462.95 c -119.38,-173.57 -75.45,-411.07 98.13,-530.46 66.03,-45.44 141.3,-67.21 215.84,-67.21 121.34,0 240.66,57.78 314.62,165.31 l 106.94,149.52 -343.46,462.04 c -61.5,85.47 -84.93,186.78 -73.63,283.75 z"
         id="path38" /></clipPath><linearGradient
       x1="0"
       y1="0"
       x2="1"
       y2="0"
       gradientUnits="userSpaceOnUse"
       gradientTransform="matrix(1771.25,1371.49,1371.49,-1771.25,959.106,1534.34)"
       spreadMethod="pad"
       id="linearGradient50"><stop
         style="stop-opacity:1;stop-color:#ff9d00"
         offset="0"
         id="stop42" /><stop
         style="stop-opacity:1;stop-color:#f11e5a"
         offset="0.47709924"
         id="stop44" /><stop
         style="stop-opacity:1;stop-color:#f11e5a"
         offset="0.5"
         id="stop46" /><stop
         style="stop-opacity:1;stop-color:#9800a6"
         offset="1"
         id="stop48" /></linearGradient><clipPath
       clipPathUnits="userSpaceOnUse"
       id="clipPath60"><path
         d="m 3160.6,2904.59 c -181.81,130.82 -435.27,89.5 -566.07,-92.31 l -45.24,-56.97 103.73,-130.65 c 17.02,-21.43 13.45,-52.59 -7.98,-69.6 -9.1,-7.24 -20,-10.75 -30.76,-10.75 -14.62,0 -29.07,6.4 -38.86,18.74 l -221,278.32 c -135.87,156.73 -371.31,186.73 -542.96,63.22 -181.8,-130.83 -223.14,-384.27 -92.3,-566.08 l 486.1,-653.96 c 86.96,-112.78 181.51,-169.15 280.77,-169.12 99.25,-0.03 193.8,56.34 280.76,169.12 l 486.1,653.96 c 130.83,181.81 89.51,435.25 -92.29,566.08 z"
         id="path58" /></clipPath><linearGradient
       x1="0"
       y1="0"
       x2="1"
       y2="0"
       gradientUnits="userSpaceOnUse"
       gradientTransform="matrix(2170.97,1638.6,1638.6,-2170.97,1308.89,1541.31)"
       spreadMethod="pad"
       id="linearGradient70"><stop
         style="stop-opacity:1;stop-color:#ff9d00"
         offset="0"
         id="stop62" /><stop
         style="stop-opacity:1;stop-color:#f11e5a"
         offset="0.47709924"
         id="stop64" /><stop
         style="stop-opacity:1;stop-color:#f11e5a"
         offset="0.5"
         id="stop66" /><stop
         style="stop-opacity:1;stop-color:#9800a6"
         offset="1"
         id="stop68" /></linearGradient><linearGradient
       inkscape:collect="always"
       xlink:href="#linearGradient870"
       id="linearGradient872"
       x1="830.6106"
       y1="1787.1189"
       x2="3744.446"
       y2="2771.7944"
       gradientUnits="userSpaceOnUse" /><linearGradient
       inkscape:collect="always"
       xlink:href="#linearGradient888"
       id="linearGradient874"
       x1="830.6106"
       y1="1787.1189"
       x2="3744.446"
       y2="2771.7944"
       gradientUnits="userSpaceOnUse" /><linearGradient
       inkscape:collect="always"
       xlink:href="#linearGradient882"
       id="linearGradient876"
       x1="-294.73279"
       y1="2972.7485"
       x2="2619.1025"
       y2="3957.4241"
       gradientUnits="userSpaceOnUse" /><linearGradient
       inkscape:collect="always"
       xlink:href="#linearGradient9976"
       id="linearGradient9450"
       gradientUnits="userSpaceOnUse"
       x1="1929.8466"
       y1="2156.4709"
       x2="3791.8113"
       y2="3089.1423" /><linearGradient
       inkscape:collect="always"
       xlink:href="#linearGradient9714"
       id="linearGradient9678"
       gradientUnits="userSpaceOnUse"
       x1="830.6106"
       y1="1787.1189"
       x2="1768.9185"
       y2="2176.8203" /></defs><sodipodi:namedview
     pagecolor="#ffffff"
     bordercolor="#666666"
     borderopacity="1"
     objecttolerance="10"
     gridtolerance="10"
     guidetolerance="10"
     inkscape:pageopacity="0"
     inkscape:pageshadow="2"
     inkscape:window-width="2106"
     inkscape:window-height="1213"
     id="namedview4"
     inkscape:document-rotation="0"
     showgrid="false"
     inkscape:zoom="1.4085757"
     inkscape:cx="-55.730055"
     inkscape:cy="148.7318"
     inkscape:window-x="38"
     inkscape:window-y="62"
     inkscape:window-maximized="0"
     inkscape:current-layer="g10"
     inkscape:pagecheckerboard="0" /><g
     id="g10"
     inkscape:groupmode="layer"
     inkscape:label="ink_ext_XXXXXX"
     transform="matrix(1.3333333,0,0,-1.3333333,0,600)"><g
       id="g12"
       transform="scale(0.1)"><g
         id="g16"
         style="fill-opacity:1;fill:url(#linearGradient876)" /><g
         id="g34"
         transform="translate(-1125.3434,1185.6296)"
         style="fill-opacity:1;fill:url(#linearGradient874)"><g
           id="g36"
           clip-path="url(#clipPath40)"
           style="fill-opacity:1;fill:url(#linearGradient874)"><path
             d="m 1556.35,2576.02 -318.44,-462.95 c -119.38,-173.57 -75.45,-411.07 98.13,-530.46 66.03,-45.44 141.3,-67.21 215.84,-67.21 121.34,0 240.66,57.78 314.62,165.31 l 106.94,149.52 -343.46,462.04 c -61.5,85.47 -84.93,186.78 -73.63,283.75"
             style="fill:url(#linearGradient9678);fill-opacity:1;fill-rule:nonzero;stroke:none"
             id="path52" /></g></g><g
         id="g54"
         transform="translate(-1125.3434,1185.6296)"
         style="fill-opacity:1;fill:url(#linearGradient872)"><g
           id="g56"
           clip-path="url(#clipPath60)"
           style="fill-opacity:1;fill:url(#linearGradient872)"><path
             d="m 3160.6,2904.59 c -181.81,130.82 -435.27,89.5 -566.07,-92.31 l -45.24,-56.97 103.73,-130.65 c 17.02,-21.43 13.45,-52.59 -7.98,-69.6 -9.1,-7.24 -20,-10.75 -30.76,-10.75 -14.62,0 -29.07,6.4 -38.86,18.74 l -221,278.32 c -135.87,156.73 -371.31,186.73 -542.96,63.22 -181.8,-130.83 -223.14,-384.27 -92.3,-566.08 l 486.1,-653.96 c 86.96,-112.78 181.51,-169.15 280.77,-169.12 99.25,-0.03 193.8,56.34 280.76,169.12 l 486.1,653.96 c 130.83,181.81 89.51,435.25 -92.29,566.08"
             style="fill:url(#linearGradient9450);fill-opacity:1;fill-rule:nonzero;stroke:none"
             id="path72" /></g></g></g></g></svg>
