<svg xmlns="http://www.w3.org/2000/svg" viewBox="0 0 2000 2222.22"><defs><style>.cls-1{fill:#fff;}</style></defs><g id="Elements"><g id="Element"><path class="cls-1" d="M627.71,1230.06c-.63,0-1.26,0-1.89-.08-200.54-17.75-326.56-90.67-385.28-222.88a18.63,18.63,0,0,1-1.65-7.74c0-139.45,129.36-205.28,233.32-258.18l19.09-9.75a110.2,110.2,0,0,1,77.89-8.56c46.58,12,79.09,52.67,79.09,98.93v388.52a19.33,19.33,0,0,1-6.71,14.58A21.09,21.09,0,0,1,627.71,1230.06ZM280.07,995.37c50.82,110.44,158,173.73,327.06,193V821.8c0-28.42-20-53.42-48.6-60.78a67.64,67.64,0,0,0-47.79,5.22v0l-19.25,9.8C393.52,825.91,282.64,882.34,280.07,995.37ZM501,748.84h0Z"/><path class="cls-1" d="M727.15,1878.24c-146.34,0-256.19-23-340.09-69.34-91.4-50.55-148.17-146-148.17-249V999.36A19.94,19.94,0,0,1,255.34,980a20.68,20.68,0,0,1,23.06,11.6c83.14,187.21,318.34,241.73,762.52,177.08h0c61.59-9,124,8.22,171.24,47.22s74.4,95.68,74.4,155.49v268.35c0,100.48-74.88,185.53-178,202.21C959.41,1866.09,833.62,1878.24,727.15,1878.24ZM280,1074.2V1560c0,88.94,48.9,171.22,127.6,214.73,134.2,74.23,354.73,83.26,694,28.34,83.31-13.46,143.77-82.12,143.77-163.26V1371.41c0-48.3-21.91-94.05-60.08-125.55s-88.54-45.37-138.23-38.13h0C762.67,1249.19,427.81,1268.27,280,1074.2Z"/><path class="cls-1" d="M758.68,1570.46c-157.4,0-301.88-17.09-371.6-55.65h0c-91.4-50.54-148.17-145.94-148.17-249V999.36A19.94,19.94,0,0,1,255.34,980a20.68,20.68,0,0,1,23.06,11.6c83.14,187.19,318.37,241.79,762.52,177.08,3.93-.58,7.84-1,11.75-1.39.27,0,2.32-.18,2.57-.18,4.08-.3,6.71-.5,9.37-.6l3.7-.08c3.91-.06,6-.12,8-.06l26.53,2s2.87.42,2.89.42l9,1.54c2.91.56,4.77.92,6.58,1.35l21.22,5.87c1.72.55,3.66,1.25,5.56,2l14.91,6c1.78.78,3.72,1.68,5.64,2.62l9.62,4.94,1.9,1.06c.09,0,1.86,1,1.95,1.09l9.15,5.55c1.86,1.21,3.83,2.49,5.77,3.81l3,2.11c1.84,1.32,3.83,2.75,5.77,4.21l2.53,2c2,1.56,3.93,3.15,5.88,4.79.1.08,2,1.75,2.15,1.85,2,1.74,4,3.51,5.92,5.33,3.53,3.37,5.62,5.46,7.67,7.56,3,3.19,5.2,5.56,7.32,8a198.86,198.86,0,0,1,48.71,116,20.42,20.42,0,0,1,0,2.71,44.56,44.56,0,0,0,.37,10.21,20.24,20.24,0,0,1,.23,3V1486a19.77,19.77,0,0,1-13.57,18.57C1153.5,1546,946.85,1570.46,758.68,1570.46Zm-351.07-89.87c129.32,71.49,606,65.58,837.81-8.62v-98.23a83.06,83.06,0,0,1-.61-15.73,160.41,160.41,0,0,0-39.22-92.33c-1.73-2-3.47-3.91-5.24-5.77-2.24-2.35-3.91-4-5.63-5.62l-12.66-11,10.89-17-12.84,15.44L1160.88,1229l7.23-18.79L1158,1227.41l-41.66-16.25-16.77-3.35.29-19.92-3,19.54-21.22-1.56-4.51,0-2.32,0-2.51,0c-2.2.08-4.24.24-6.27.4-.13,0-2.07.14-2.2.16-4.2.36-7.44.72-10.66,1.18-284.44,41.46-619.3,60.54-767.08-133.53v191.64c0,88.94,48.9,171.25,127.6,214.75Z"/><path class="cls-1" d="M1740.54,1252a20.66,20.66,0,0,1-18.94-12C1638.48,1052.86,1403.26,998.2,959.06,1063h0c-61.47,9-124-8.23-171.22-47.2s-74.4-95.7-74.4-155.52V591.9c0-100.47,74.86-185.52,178-202.21,354-57.31,576.51-47.1,721.45,33.06,91.42,50.55,148.19,146,148.19,249v560.56a19.93,19.93,0,0,1-16.45,19.34A20.69,20.69,0,0,1,1740.54,1252ZM1271.47,996.75c184.47,0,354.41,37.17,448.5,160.69V671.72c0-88.94-48.89-171.24-127.58-214.75-134.28-74.24-354.85-83.25-694.06-28.33C815,442.1,754.58,510.77,754.58,591.9V860.23c0,48.3,21.91,94.08,60.08,125.57a177.1,177.1,0,0,0,138.21,38.11h0C1056.18,1008.87,1166.21,996.75,1271.47,996.75Z"/><path class="cls-1" d="M1740.54,1252a20.66,20.66,0,0,1-18.94-12C1638.48,1052.86,1403.26,998.2,959.06,1063c-4,.58-7.91,1-11.86,1.4l-2.67.2-2.87-19.6.09,19.8-17.81.52-15.66-.78-1.09-19.92-1.94,19.64-4.31-.42c-1.69-.2-3.58-.46-5.46-.74l-27.49-5.7c-1.9-.54-3.82-1.12-5.73-1.72l-15-5.16c-2.09-.82-4-1.6-5.9-2.41l-13.94-6.46c-2-1-3.91-2-5.81-3.06L808.87,1031c-1.88-1.18-3.84-2.48-5.77-3.81l-3-2c-2-1.47-4-2.89-5.93-4.36l-2.57-2c-1.91-1.49-3.95-3.11-5.94-4.82l-2.13-1.86c-1.84-1.57-3.91-3.41-5.92-5.32-3.51-3.37-5.58-5.39-7.59-7.48-3-3.17-5.16-5.54-7.27-7.94-28.66-33.08-45.51-73.2-48.75-116a17.25,17.25,0,0,1,0-2.69,45.18,45.18,0,0,0-.38-10.23,20.13,20.13,0,0,1-.23-3V745.66A19.79,19.79,0,0,1,727,727.08c219.42-76.16,732.84-94.9,885.91-10.25h0c91.4,50.55,148.17,145.95,148.17,249v266.48a19.93,19.93,0,0,1-16.45,19.34A20.69,20.69,0,0,1,1740.54,1252ZM1271.47,996.75c184.47,0,354.41,37.17,448.5,160.69V965.8c0-88.94-48.89-171.24-127.58-214.75h0C1463,679.52,986.34,685.5,754.58,759.7v98.22a83,83,0,0,1,.61,15.73A160.63,160.63,0,0,0,794.41,966c1.69,1.93,3.44,3.87,5.24,5.74,2.28,2.39,4,4,5.71,5.72,2.78,2.64,4.39,4,6,5.45l-11.94,16.27,13.72-14.72c1.52,1.3,3.11,2.56,4.68,3.79l32.11,20.06L888,1021.55l21.13,3.37,3.08.28,12.21.6,5.58-.06,4.66,19.66-.92-19.72,8.15-.54c4.62-.39,7.8-.77,11-1.23C1056.18,1008.87,1166.21,996.75,1271.47,996.75Z"/><path class="cls-1" d="M1458.61,1512.31a112.59,112.59,0,0,1-27.8-3.53c-46.56-12-79.09-52.66-79.09-98.93V1021.32a19.34,19.34,0,0,1,6.71-14.58,20.53,20.53,0,0,1,15.77-5.07c200.52,17.77,326.54,90.68,385.26,222.87a19,19,0,0,1,1.65,7.74c0,139.47-129.36,205.31-233.32,258.2l-19.09,9.75h0A109.53,109.53,0,0,1,1458.61,1512.31Zm40.37-29.49h0Zm-106.11-439.55v366.58c0,28.42,20,53.41,48.6,60.77a67.47,67.47,0,0,0,47.79-5.21l19.25-9.81c98-49.85,208.85-106.27,211.42-219.32C1669.11,1125.85,1562,1062.57,1392.87,1043.27Z"/></g></g></svg>