<svg id="Lag_1" data-name="Lag 1" xmlns="http://www.w3.org/2000/svg" xmlns:xlink="http://www.w3.org/1999/xlink" viewBox="0 0 2000 1000"><defs><style>.cls-1{fill:none;}.cls-2{font-size:370px;font-family:HelveticaNeue-Medium, Helvetica Neue;font-weight:500;}.cls-2,.cls-5{fill:#fff;}.cls-3{clip-path:url(#clip-path);}.cls-4{clip-path:url(#clip-path-2);}</style><clipPath id="clip-path"><rect class="cls-1" x="12.16" y="173.9" width="593.53" height="728.72"/></clipPath><clipPath id="clip-path-2"><rect class="cls-1" x="12.16" y="173.9" width="593.53" height="728.72"/></clipPath></defs><text class="cls-2" transform="translate(621.07 667.26) scale(0.93 1)">Softcorp</text><g class="cls-3"><g class="cls-4"><path class="cls-5" d="M394.51,627.11c0,.31,0,.69,0,1v39.68C324.3,694.51,163.75,699.62,118,671.87c-27.38-16.6-43.9-47.68-43.9-80.93v-93c1.11,2.73,2.31,5.36,3.57,7.92.41.82.85,1.6,1.27,2.41.9,1.71,1.81,3.41,2.78,5,.52.88,1.07,1.74,1.62,2.61.94,1.5,1.92,3,2.93,4.41.58.83,1.16,1.65,1.76,2.46,1.09,1.45,2.21,2.85,3.36,4.23.57.69,1.13,1.39,1.72,2.06.24.27.45.57.69.83,1.24,1.38,2.54,2.69,3.84,4,.32.32.61.66.93,1q2.7,2.64,5.58,5.07l.41.32c.43.36.89.69,1.33,1,1.64,1.32,3.31,2.61,5,3.84.69.48,1.39,1,2.09,1.42.93.64,1.84,1.31,2.8,1.92.63.4,1.3.76,1.94,1.15s1.52.92,2.3,1.36,1.36.84,2.06,1.23c1,.55,2,1,3,1.56.72.37,1.44.76,2.18,1.12,2,1,4.11,2,6.22,2.86.46.2.9.42,1.36.61l.73.32a154.48,154.48,0,0,0,14.67,5.18l1.26.34c.6.18,1.22.33,1.83.5,2.28.64,4.6,1.25,7,1.8q1.18.29,2.37.54c1.12.25,2.21.53,3.35.77s2.39.44,3.59.66l2.33.44c2.58.45,5.21.87,7.86,1.25l1.57.23c40.63,5.51,89.36,1.92,142.48-6.56a59.13,59.13,0,0,1,6.84-.69H331a57.47,57.47,0,0,1,6.44.11l.47,0a57.9,57.9,0,0,1,6.07.82l.62.12a58.19,58.19,0,0,1,5.71,1.45l.72.23c1.82.59,3.61,1.26,5.35,2l.79.36c1.71.76,3.37,1.61,5,2.53l.81.47q2.38,1.4,4.63,3c.28.19.55.39.82.59q2.2,1.64,4.26,3.47l.79.7c1.34,1.23,2.63,2.53,3.87,3.88l.73.8c1.1,1.25,2.14,2.56,3.15,3.9.45.6.9,1.21,1.33,1.82.83,1.18,1.61,2.39,2.36,3.63.34.57.7,1.13,1,1.71.85,1.5,1.63,3.05,2.37,4.64.34.72.64,1.46,1,2.21.48,1.15.94,2.33,1.36,3.53.27.76.55,1.51.79,2.28.56,1.8,1.07,3.62,1.48,5.49.16.71.26,1.43.4,2.15.25,1.34.48,2.69.65,4.06.11.86.2,1.73.28,2.61.15,1.76.26,3.53.28,5.33M89.78,499.26l1.1,2.1c.77,1.47,1.57,2.95,2.42,4.38l1.2,1.94c1,1.63,1.87,2.89,2.73,4.13.49.7,1,1.39,1.49,2.07,1,1.29,1.93,2.51,2.93,3.7l2.14,2.57c1,1.1,2.1,2.22,3.22,3.34l.83.86c1.53,1.5,3.14,3,4.81,4.37l1.57,1.23c1.4,1.14,2.86,2.26,4.37,3.34l4.26,2.91,5.62,3.34,4.66,2.4c1.79.89,3.66,1.74,5.57,2.56l2,.87a140.89,140.89,0,0,0,13.35,4.7l2.83.78q3.21.89,6.49,1.67l5.3,1.22,5.62,1q3.65.65,7.41,1.18l.93.13c2.82.39,5.83.56,8.73.86v-121c0-13.06-8.34-24.5-20.33-27.88a26.14,26.14,0,0,0-20,2.4c-26.65,15-58.82,31.27-71.41,60.48l7,21.34c1,2.41,2,4.72,3.16,7M233.45,704.74c-33.07,0-92.93-2.66-122.27-20.45A103.53,103.53,0,0,1,74.09,645V693.6c0,33.24,16.52,64.33,43.9,80.93,50.82,30.81,132.28,27.23,225.33,10.72,29.57-5.25,51.22-32.24,51.22-63.79V682.92c-38,13.31-100.37,21.82-161.07,21.82ZM499.86,404.63c-45.76-27.74-206.3-22.63-276.55,4.09V448.4c0,.31,0,.68,0,1,0,1.8.13,3.57.28,5.33.08.87.17,1.74.28,2.61.18,1.37.4,2.72.65,4.06.14.72.24,1.44.4,2.15.41,1.87.92,3.69,1.48,5.49.24.77.52,1.52.79,2.28.42,1.19.88,2.37,1.36,3.53.32.74.62,1.49,1,2.21.74,1.58,1.52,3.14,2.37,4.64.33.58.69,1.14,1,1.71.75,1.23,1.53,2.45,2.36,3.63.43.61.88,1.22,1.33,1.82,1,1.33,2.05,2.65,3.15,3.9.24.27.49.53.73.79q1.86,2,3.87,3.89l.79.7q2.06,1.83,4.26,3.47l.82.59q2.25,1.6,4.63,3l.81.47c1.63.92,3.29,1.76,5,2.53l.79.36c1.74.75,3.53,1.42,5.35,2l.73.23a54.63,54.63,0,0,0,5.7,1.44l.62.13a55.35,55.35,0,0,0,6.07.81l.47,0a60,60,0,0,0,6.44.11h.28a59.15,59.15,0,0,0,6.83-.68c53.12-8.49,101.85-12.07,142.48-6.56l1.57.23c2.65.38,5.28.79,7.86,1.25l2.33.44c1.2.22,2.41.42,3.59.66s2.23.51,3.35.77l2.37.53c2.35.56,4.67,1.17,7,1.81l1.82.49c.42.13.85.23,1.26.35a154.48,154.48,0,0,1,14.67,5.18l.73.32c.46.19.91.41,1.36.6,2.11.91,4.19,1.86,6.22,2.87.74.36,1.46.74,2.19,1.12,1,.52,2,1,3,1.56.7.39,1.37.82,2.06,1.22s1.55.91,2.31,1.37,1.3.75,1.93,1.15c1,.61,1.87,1.28,2.8,1.91.7.48,1.41.94,2.09,1.43,1.72,1.23,3.39,2.52,5,3.84.44.35.9.69,1.33,1l.41.32q2.88,2.43,5.58,5.07c.32.31.61.65.93,1,1.3,1.3,2.6,2.61,3.84,4,.24.26.45.55.69.82.59.67,1.15,1.38,1.72,2.07,1.15,1.38,2.27,2.78,3.36,4.23.6.81,1.18,1.63,1.76,2.46,1,1.43,2,2.91,2.93,4.41.55.86,1.1,1.73,1.62,2.61,1,1.64,1.88,3.33,2.78,5,.42.8.86,1.58,1.27,2.41,1.26,2.56,2.46,5.19,3.57,7.92v-93c0-33.25-16.52-64.33-43.9-80.94m28.21,172.62-1.1-2.1c-.77-1.47-1.57-3-2.42-4.38l-1.19-1.94c-1-1.63-1.87-2.9-2.74-4.14-.49-.69-1-1.38-1.48-2.06-1-1.29-1.94-2.51-2.94-3.7l-2.14-2.57c-1-1.1-2.1-2.22-3.22-3.34l-.83-.86c-1.53-1.5-3.14-3-4.81-4.38l-1.57-1.22c-1.4-1.14-2.86-2.26-4.37-3.34L495,540.31,489.38,537l-4.66-2.4c-1.79-.89-3.66-1.74-5.57-2.56l-2-.88c-4.09-1.68-8.6-3.27-13.35-4.69l-2.83-.78q-3.21-.9-6.49-1.68l-5.3-1.21-5.62-1c-2.43-.43-4.9-.83-7.41-1.18l-.93-.14c-2.82-.38-5.83-.56-8.73-.85v121c0,13.06,8.34,24.5,20.33,27.88a26.17,26.17,0,0,0,20-2.41c26.65-15,58.81-31.26,71.4-60.48l-7-21.34c-1-2.41-2-4.72-3.16-7M499.86,302C449,271.17,367.58,274.75,274.53,291.26c-29.57,5.25-51.22,32.24-51.22,63.79v38.53c38-13.3,100.37-21.81,161.07-21.81h0c33.07,0,92.93,2.66,122.27,20.44a103.63,103.63,0,0,1,37.09,39.31V382.91c0-33.25-16.52-64.33-43.9-80.93"/></g></g></svg>