<svg xmlns="http://www.w3.org/2000/svg" viewBox="0 0 2000 2222.22"><defs><style>.cls-1{fill:#fff;}</style></defs><g id="Elements"><path id="Element" class="cls-1" d="M1288.39,1382.08c.1,1,0,2.11.12,3v121c-236.72,81.49-777.71,97.06-931.9,12.45-92.26-50.62-147.92-145.42-147.92-246.81V988.1c3.73,8.34,7.78,16.36,12,24.17,1.37,2.51,2.86,4.89,4.27,7.34,3,5.23,6.11,10.4,9.37,15.39,1.77,2.71,3.61,5.33,5.45,8,3.19,4.58,6.47,9.08,9.87,13.45,2,2.53,3.93,5,6,7.5,3.65,4.42,7.44,8.7,11.31,12.91,1.93,2.1,3.81,4.24,5.8,6.29.79.82,1.52,1.71,2.32,2.52,4.17,4.21,8.55,8.19,12.94,12.17,1.06,1,2.06,2,3.14,3,6.07,5.35,12.31,10.51,18.79,15.44.44.34.93.65,1.38,1,1.46,1.1,3,2.11,4.5,3.2,5.52,4,11.14,7.95,16.94,11.7,2.3,1.49,4.68,2.91,7,4.35,3.15,1.94,6.21,4,9.44,5.84,2.12,1.22,4.37,2.32,6.52,3.5q3.84,2.13,7.76,4.17c2.34,1.23,4.58,2.55,7,3.74,3.32,1.67,6.79,3.16,10.18,4.75,2.46,1.15,4.88,2.32,7.37,3.43,6.84,3.06,13.83,5.95,21,8.73,1.54.6,3,1.26,4.59,1.84.83.32,1.61.68,2.45,1q23.76,8.86,49.43,15.78c1.4.37,2.86.69,4.26,1.06,2,.53,4.11,1,6.15,1.52,7.7,1.94,15.51,3.79,23.45,5.49,2.64.57,5.3,1.1,8,1.64,3.77.77,7.46,1.62,11.28,2.33,4,.74,8.08,1.35,12.1,2,2.61.45,5.22.9,7.85,1.32q13.07,2.1,26.51,3.82c1.76.23,3.5.49,5.28.7,136.89,16.8,301.1,5.88,480.09-20a218.84,218.84,0,0,1,23-2.09c.32,0,.63,0,.94,0q11-.37,21.68.33l1.61.14q10.35.76,20.43,2.48l2.1.39q9.77,1.77,19.22,4.39l2.46.72q9.2,2.68,18,6.14l2.67,1.07q8.61,3.51,16.82,7.73c.92.47,1.84.95,2.75,1.44q8,4.26,15.61,9.2l2.76,1.8c4.94,3.32,9.72,6.86,14.34,10.57.89.71,1.78,1.41,2.65,2.13,4.53,3.77,8.87,7.74,13,11.86.82.81,1.65,1.61,2.46,2.43,3.73,3.81,7.22,7.82,10.62,11.9,1.53,1.83,3,3.67,4.49,5.55,2.79,3.59,5.41,7.29,8,11.07,1.15,1.73,2.36,3.43,3.46,5.2,2.87,4.59,5.51,9.32,8,14.15,1.13,2.21,2.17,4.47,3.22,6.73,1.65,3.54,3.17,7.14,4.6,10.78.9,2.31,1.84,4.6,2.66,7,1.9,5.48,3.6,11,5,16.75.53,2.15.88,4.36,1.33,6.54.85,4.09,1.61,8.21,2.19,12.39q.55,4,.94,8C1288,1371.19,1288.33,1376.59,1288.39,1382.08ZM261.54,992.19l3.72,6.41c2.61,4.48,5.3,9,8.14,13.37l4,5.91c3.46,5,6.3,8.82,9.22,12.6,1.64,2.11,3.27,4.23,5,6.3,3.25,3.93,6.53,7.64,9.89,11.29l7.2,7.84c3.3,3.33,7.09,6.75,10.88,10.16l2.78,2.63c5.16,4.57,10.58,9.08,16.21,13.35l5.27,3.73c4.74,3.48,9.67,6.9,14.74,10.19l14.35,8.88,19,10.19,15.69,7.3c6,2.71,12.34,5.32,18.75,7.81l6.67,2.67c13.77,5.15,29,10,45,14.33l9.53,2.37c7.23,1.82,14.49,3.52,21.87,5.1l17.88,3.72,19,3.16c8.16,1.32,16.5,2.52,24.94,3.61l3.16.4c9.48,1.17,19.64,1.71,29.4,2.62v-369c0-39.83-28.09-74.69-68.49-85a96.34,96.34,0,0,0-67.42,7.34C378,767.21,269.64,816.76,227.2,905.85l23.71,65.08C254.21,978.27,257.8,985.32,261.54,992.19Zm484.15,626.62c-111.45,0-313.16-8.11-412-62.35a331.66,331.66,0,0,1-125-119.86v148.23c0,101.38,55.67,196.19,147.93,246.81,171.24,94,445.76,83,759.28,32.68,99.66-16,172.62-98.3,172.62-194.53V1552.28c-128.18,40.58-338.22,66.53-542.76,66.53Zm897.7-915.17c-154.19-84.6-695.18-69-931.9,12.45v121c.15.93,0,2.08.12,3,.06,5.48.43,10.88.95,16.24.26,2.68.57,5.33.94,8,.58,4.18,1.34,8.31,2.19,12.39.45,2.18.8,4.39,1.33,6.55,1.4,5.69,3.1,11.26,5,16.74.82,2.35,1.76,4.64,2.66,7,1.43,3.65,3,7.24,4.6,10.78,1.05,2.26,2.09,4.52,3.22,6.74,2.48,4.82,5.12,9.55,8,14.14,1.1,1.77,2.31,3.47,3.46,5.2,2.53,3.78,5.16,7.48,7.95,11.07,1.46,1.88,3,3.72,4.49,5.55,3.4,4.08,6.89,8.1,10.62,11.9.81.82,1.64,1.62,2.46,2.43,4.18,4.12,8.52,8.09,13,11.86.87.72,1.76,1.42,2.65,2.13,4.62,3.71,9.4,7.25,14.34,10.57l2.76,1.81c5.06,3.27,10.26,6.35,15.61,9.19.91.49,1.83,1,2.75,1.44q8.21,4.22,16.82,7.73l2.67,1.08q8.82,3.45,18,6.13l2.46.72q9.45,2.63,19.22,4.39l2.1.4q10.07,1.71,20.43,2.47l1.61.14q10.72.71,21.68.33h.94a221.58,221.58,0,0,0,23-2.1c179-25.87,343.2-36.79,480.09-20,1.78.22,3.52.48,5.28.7q13.44,1.74,26.51,3.82c2.63.42,5.24.87,7.85,1.32,4,.68,8.13,1.29,12.1,2,3.82.72,7.51,1.56,11.28,2.33,2.67.54,5.33,1.08,8,1.64q11.91,2.57,23.45,5.49c2,.52,4.12,1,6.15,1.53,1.4.37,2.86.68,4.26,1.06q25.65,6.93,49.43,15.77c.84.31,1.62.67,2.45,1,1.56.59,3,1.24,4.59,1.85q10.68,4.16,21,8.72c2.49,1.11,4.91,2.28,7.37,3.43,3.39,1.59,6.86,3.09,10.18,4.75,2.38,1.19,4.62,2.51,7,3.74,2.61,1.37,5.2,2.75,7.76,4.17,2.15,1.19,4.4,2.28,6.52,3.5,3.23,1.87,6.29,3.9,9.44,5.84,2.35,1.45,4.73,2.86,7,4.35,5.8,3.75,11.42,7.68,16.94,11.71,1.49,1.08,3,2.09,4.5,3.2.45.34.94.64,1.38,1,6.48,4.93,12.72,10.1,18.79,15.45,1.08,1,2.08,2,3.14,3,4.39,4,8.77,8,12.94,12.17.8.81,1.53,1.7,2.32,2.52,2,2.05,3.87,4.2,5.8,6.3,3.87,4.2,7.66,8.48,11.31,12.91,2,2.45,4,5,6,7.49q5.1,6.57,9.87,13.45c1.84,2.64,3.68,5.27,5.45,8,3.26,5,6.34,10.16,9.37,15.39,1.41,2.46,2.9,4.84,4.26,7.34,4.26,7.81,8.31,15.83,12,24.17V950.45C1791.31,849.06,1735.65,754.26,1643.39,703.64ZM1738.46,1230l-3.72-6.41c-2.61-4.48-5.3-9-8.14-13.37l-4-5.91c-3.46-4.95-6.3-8.82-9.22-12.6-1.64-2.11-3.27-4.23-5-6.3-3.25-3.93-6.53-7.64-9.89-11.29l-7.2-7.84c-3.3-3.33-7.09-6.75-10.88-10.16l-2.78-2.63c-5.16-4.57-10.58-9.07-16.21-13.34l-5.27-3.74c-4.74-3.48-9.67-6.9-14.74-10.19l-14.35-8.88-19-10.18-15.69-7.31c-6-2.71-12.34-5.31-18.75-7.81l-6.67-2.67c-13.77-5.15-29-10-45-14.33l-9.53-2.37c-7.23-1.81-14.49-3.52-21.87-5.1l-17.88-3.72-19-3.16c-8.16-1.32-16.5-2.52-24.94-3.61l-3.16-.4c-9.48-1.17-19.64-1.71-29.4-2.61v369c0,39.83,28.09,74.69,68.49,85a96.39,96.39,0,0,0,67.42-7.33c89.8-45.8,198.19-95.35,240.63-184.44l-23.71-65.08C1745.79,1244,1742.2,1236.9,1738.46,1230Zm-95.07-839.45c-171.24-94-445.76-83-759.28-32.68-99.66,16-172.62,98.3-172.62,194.53V669.94c128.18-40.58,338.22-66.53,542.76-66.53h.06c111.45,0,313.16,8.12,412,62.35a331.66,331.66,0,0,1,125,119.86V637.4C1791.32,536,1735.65,441.21,1643.39,390.58Z"/></g></svg>