<?xml version="1.0" encoding="UTF-8" standalone="no"?>
<svg
   id="Lag_1"
   data-name="Lag 1"
   viewBox="0 0 2000 1000"
   version="1.1"
   sodipodi:docname="softcorp_cover.svg"
   inkscape:version="1.1.2 (b8e25be8, 2022-02-05)"
   inkscape:export-filename="/Users/oscarorellana/Desktop/softcorp/website/softcorp/cover_white/softcorp_cover.png"
   inkscape:export-xdpi="1135"
   inkscape:export-ydpi="1135"
   xmlns:inkscape="http://www.inkscape.org/namespaces/inkscape"
   xmlns:sodipodi="http://sodipodi.sourceforge.net/DTD/sodipodi-0.dtd"
   xmlns:xlink="http://www.w3.org/1999/xlink"
   xmlns="http://www.w3.org/2000/svg"
   xmlns:svg="http://www.w3.org/2000/svg">
  <sodipodi:namedview
     id="namedview21"
     pagecolor="#ffffff"
     bordercolor="#666666"
     borderopacity="1.0"
     inkscape:pageshadow="2"
     inkscape:pageopacity="0.0"
     inkscape:pagecheckerboard="true"
     showgrid="false"
     inkscape:zoom="0.18018284"
     inkscape:cx="835.26267"
     inkscape:cy="1295.9059"
     inkscape:window-width="1302"
     inkscape:window-height="1051"
     inkscape:window-x="0"
     inkscape:window-y="38"
     inkscape:window-maximized="0"
     inkscape:current-layer="g1705" />
  <defs
     id="defs10">
    <style
       id="style2">.cls-1{fill:none;}.cls-2{font-size:370px;font-family:HelveticaNeue-Medium, Helvetica Neue;font-weight:500;}.cls-2,.cls-5{fill:#fff;}.cls-3{clip-path:url(#clip-path);}.cls-4{clip-path:url(#clip-path-2);}</style>
    <clipPath
       id="clip-path">
      <rect
         class="cls-1"
         x="12.16"
         y="173.9"
         width="593.53"
         height="728.72"
         id="rect4" />
    </clipPath>
    <clipPath
       id="clip-path-2">
      <rect
         class="cls-1"
         x="12.16"
         y="173.9"
         width="593.53"
         height="728.72"
         id="rect7" />
    </clipPath>
    <linearGradient
       id="p1"
       x1="18.519423"
       y1="1440"
       x2="1421.4806"
       y2="0"
       gradientTransform="scale(1.3333333,0.75)"
       gradientUnits="userSpaceOnUse">
      <stop
         offset="0%"
         style="stop-color:#00ffff;stop-opacity:1"
         id="stop1664" />
      <stop
         offset="100%"
         style="stop-color:#0000cd;stop-opacity:1"
         id="stop1666" />
    </linearGradient>
    <linearGradient
       id="p1-6"
       x1="18.519423"
       y1="1440"
       x2="1421.4806"
       y2="0"
       gradientTransform="scale(1.3333333,0.75)"
       gradientUnits="userSpaceOnUse">
      <stop
         offset="0%"
         style="stop-color:#00ffff;stop-opacity:1"
         id="stop1664-5" />
      <stop
         offset="100%"
         style="stop-color:#0000cd;stop-opacity:1"
         id="stop1666-7" />
    </linearGradient>
    <linearGradient
       id="p1-6-9"
       x1="18.519423"
       y1="1440"
       x2="1421.4806"
       y2="0"
       gradientTransform="matrix(1.0720885,0,0,0.67881844,732.99384,190.35984)"
       gradientUnits="userSpaceOnUse">
      <stop
         offset="0%"
         style="stop-color:#00ffff;stop-opacity:1"
         id="stop1664-5-9" />
      <stop
         offset="100%"
         style="stop-color:#0000cd;stop-opacity:1"
         id="stop1666-7-9" />
    </linearGradient>
  </defs>
  <g
     inkscape:groupmode="layer"
     id="layer2"
     inkscape:label="Layer 2">
    <g
       id="g1705"
       transform="matrix(1.3031056,0,0,1.0353982,-953.28107,-196.29279)">
      <rect
         width="1543.8074"
         height="977.4986"
         x="732.99384"
         y="190.35986"
         fill="url(#p1)"
         id="rect1673"
         style="fill:url(#p1-6-9);stroke-width:0.853085" />
      <path
         class="x o"
         d="M 5,5 H 7 V 6 H 6 V 7 H 7 V 8 H 5 Z M 4,3 H 8 V 4 H 9 V 9 H 8 v 1 H 4 V 9 H 3 V 4 H 4 V 9 H 8 V 4 H 4 Z m 7,1 h 1 v 2 h 1 V 4 h 1 v 2 h -1 v 1 h 1 V 9 H 13 V 7 H 12 V 9 H 11 V 7 h 1 V 6 h -1 z m 4,0 h 5 V 9 H 19 V 5 H 18 V 9 H 17 V 5 h -1 v 4 h -1 z m 6,0 h 3 l -1,1 h -1 v 3 h 1 V 5 l 1,-1 v 5 h -2 v 2 h -1 z m 4,-2 h 1 v 6 h 1 v 1 h -2 z m 3,2 h 3 l -1,1 h -1 v 1 h 1 V 5 l 1,-1 v 3 h -2 v 1 h 2 v 1 h -3 z m 4,4 h 1 v 1 h -1 z m 2,-4 h 3 v 1 h -2 v 3 h 2 v 1 h -3 z m 4,0 h 3 v 5 h -3 l 1,-1 h 1 V 5 h -1 v 3 l -1,1 z m 4,0 h 5 V 9 H 46 V 5 H 45 V 9 H 44 V 5 h -1 v 4 h -1 z"
         id="path1675"
         style="font-style:normal;font-variant:normal;font-weight:normal;font-stretch:normal;font-size:20px;line-height:normal;font-family:verdana" />
      <text
         x="4"
         y="1074"
         class="x o"
         id="text1677"
         style="font-style:normal;font-variant:normal;font-weight:normal;font-stretch:normal;font-size:20px;line-height:normal;font-family:verdana">© xmple.com</text>
      <a
         xlink:href="https://www.xmple.com"
         id="a1681">
        <text
           text-anchor="end"
           x="1910"
           y="22"
           class="x o"
           id="text1679"
           style="font-style:normal;font-variant:normal;font-weight:normal;font-stretch:normal;font-size:20px;line-height:normal;font-family:verdana">xmple.com</text>
      </a>
    </g>
  </g>
  <text
     class="cls-2"
     transform="scale(0.96436508,1.0369517)"
     id="text12"
     x="817.26544"
     y="541.06262"
     style="font-size:192px;stroke-width:0.504429">Softcorp</text>
  <g
     class="cls-3"
     clip-path="url(#clip-path)"
     id="g18"
     transform="matrix(0.52306853,0,0,0.52306853,463.28004,212.03311)">
    <g
       class="cls-4"
       clip-path="url(#clip-path-2)"
       id="g16">
      <path
         class="cls-5"
         d="m 394.51,627.11 c 0,0.31 0,0.69 0,1 v 39.68 C 324.3,694.51 163.75,699.62 118,671.87 90.62,655.27 74.1,624.19 74.1,590.94 v -93 c 1.11,2.73 2.31,5.36 3.57,7.92 0.41,0.82 0.85,1.6 1.27,2.41 0.9,1.71 1.81,3.41 2.78,5 0.52,0.88 1.07,1.74 1.62,2.61 0.94,1.5 1.92,3 2.93,4.41 0.58,0.83 1.16,1.65 1.76,2.46 1.09,1.45 2.21,2.85 3.36,4.23 0.57,0.69 1.13,1.39 1.72,2.06 0.24,0.27 0.45,0.57 0.69,0.83 1.24,1.38 2.54,2.69 3.84,4 0.32,0.32 0.61,0.66 0.93,1 q 2.7,2.64 5.58,5.07 l 0.41,0.32 c 0.43,0.36 0.89,0.69 1.33,1 1.64,1.32 3.31,2.61 5,3.84 0.69,0.48 1.39,1 2.09,1.42 0.93,0.64 1.84,1.31 2.8,1.92 0.63,0.4 1.3,0.76 1.94,1.15 0.64,0.39 1.52,0.92 2.3,1.36 0.78,0.44 1.36,0.84 2.06,1.23 1,0.55 2,1 3,1.56 0.72,0.37 1.44,0.76 2.18,1.12 2,1 4.11,2 6.22,2.86 0.46,0.2 0.9,0.42 1.36,0.61 l 0.73,0.32 a 154.48,154.48 0 0 0 14.67,5.18 l 1.26,0.34 c 0.6,0.18 1.22,0.33 1.83,0.5 2.28,0.64 4.6,1.25 7,1.8 q 1.18,0.29 2.37,0.54 c 1.12,0.25 2.21,0.53 3.35,0.77 1.14,0.24 2.39,0.44 3.59,0.66 l 2.33,0.44 c 2.58,0.45 5.21,0.87 7.86,1.25 l 1.57,0.23 c 40.63,5.51 89.36,1.92 142.48,-6.56 a 59.13,59.13 0 0 1 6.84,-0.69 H 331 a 57.47,57.47 0 0 1 6.44,0.11 h 0.47 a 57.9,57.9 0 0 1 6.07,0.82 l 0.62,0.12 a 58.19,58.19 0 0 1 5.71,1.45 l 0.72,0.23 c 1.82,0.59 3.61,1.26 5.35,2 l 0.79,0.36 c 1.71,0.76 3.37,1.61 5,2.53 l 0.81,0.47 q 2.38,1.4 4.63,3 c 0.28,0.19 0.55,0.39 0.82,0.59 q 2.2,1.64 4.26,3.47 l 0.79,0.7 c 1.34,1.23 2.63,2.53 3.87,3.88 l 0.73,0.8 c 1.1,1.25 2.14,2.56 3.15,3.9 0.45,0.6 0.9,1.21 1.33,1.82 0.83,1.18 1.61,2.39 2.36,3.63 0.34,0.57 0.7,1.13 1,1.71 0.85,1.5 1.63,3.05 2.37,4.64 0.34,0.72 0.64,1.46 1,2.21 0.48,1.15 0.94,2.33 1.36,3.53 0.27,0.76 0.55,1.51 0.79,2.28 0.56,1.8 1.07,3.62 1.48,5.49 0.16,0.71 0.26,1.43 0.4,2.15 0.25,1.34 0.48,2.69 0.65,4.06 0.11,0.86 0.2,1.73 0.28,2.61 0.15,1.76 0.26,3.53 0.28,5.33 M 89.78,499.26 l 1.1,2.1 c 0.77,1.47 1.57,2.95 2.42,4.38 l 1.2,1.94 c 1,1.63 1.87,2.89 2.73,4.13 0.49,0.7 1,1.39 1.49,2.07 1,1.29 1.93,2.51 2.93,3.7 l 2.14,2.57 c 1,1.1 2.1,2.22 3.22,3.34 l 0.83,0.86 c 1.53,1.5 3.14,3 4.81,4.37 l 1.57,1.23 c 1.4,1.14 2.86,2.26 4.37,3.34 l 4.26,2.91 5.62,3.34 4.66,2.4 c 1.79,0.89 3.66,1.74 5.57,2.56 l 2,0.87 a 140.89,140.89 0 0 0 13.35,4.7 l 2.83,0.78 q 3.21,0.89 6.49,1.67 l 5.3,1.22 5.62,1 q 3.65,0.65 7.41,1.18 l 0.93,0.13 c 2.82,0.39 5.83,0.56 8.73,0.86 v -121 c 0,-13.06 -8.34,-24.5 -20.33,-27.88 a 26.14,26.14 0 0 0 -20,2.4 c -26.65,15 -58.82,31.27 -71.41,60.48 l 7,21.34 c 1,2.41 2,4.72 3.16,7 m 143.67,205.49 c -33.07,0 -92.93,-2.66 -122.27,-20.45 A 103.53,103.53 0 0 1 74.09,645 v 48.6 c 0,33.24 16.52,64.33 43.9,80.93 50.82,30.81 132.28,27.23 225.33,10.72 29.57,-5.25 51.22,-32.24 51.22,-63.79 v -38.54 c -38,13.31 -100.37,21.82 -161.07,21.82 z M 499.86,404.63 C 454.1,376.89 293.56,382 223.31,408.72 v 39.68 c 0,0.31 0,0.68 0,1 0,1.8 0.13,3.57 0.28,5.33 0.08,0.87 0.17,1.74 0.28,2.61 0.18,1.37 0.4,2.72 0.65,4.06 0.14,0.72 0.24,1.44 0.4,2.15 0.41,1.87 0.92,3.69 1.48,5.49 0.24,0.77 0.52,1.52 0.79,2.28 0.42,1.19 0.88,2.37 1.36,3.53 0.32,0.74 0.62,1.49 1,2.21 0.74,1.58 1.52,3.14 2.37,4.64 0.33,0.58 0.69,1.14 1,1.71 0.75,1.23 1.53,2.45 2.36,3.63 0.43,0.61 0.88,1.22 1.33,1.82 1,1.33 2.05,2.65 3.15,3.9 0.24,0.27 0.49,0.53 0.73,0.79 q 1.86,2 3.87,3.89 l 0.79,0.7 q 2.06,1.83 4.26,3.47 l 0.82,0.59 q 2.25,1.6 4.63,3 l 0.81,0.47 c 1.63,0.92 3.29,1.76 5,2.53 l 0.79,0.36 c 1.74,0.75 3.53,1.42 5.35,2 l 0.73,0.23 a 54.63,54.63 0 0 0 5.7,1.44 l 0.62,0.13 a 55.35,55.35 0 0 0 6.07,0.81 h 0.47 a 60,60 0 0 0 6.44,0.11 h 0.28 a 59.15,59.15 0 0 0 6.83,-0.68 c 53.12,-8.49 101.85,-12.07 142.48,-6.56 l 1.57,0.23 c 2.65,0.38 5.28,0.79 7.86,1.25 l 2.33,0.44 c 1.2,0.22 2.41,0.42 3.59,0.66 1.18,0.24 2.23,0.51 3.35,0.77 l 2.37,0.53 c 2.35,0.56 4.67,1.17 7,1.81 l 1.82,0.49 c 0.42,0.13 0.85,0.23 1.26,0.35 a 154.48,154.48 0 0 1 14.67,5.18 l 0.73,0.32 c 0.46,0.19 0.91,0.41 1.36,0.6 2.11,0.91 4.19,1.86 6.22,2.87 0.74,0.36 1.46,0.74 2.19,1.12 1,0.52 2,1 3,1.56 0.7,0.39 1.37,0.82 2.06,1.22 0.69,0.4 1.55,0.91 2.31,1.37 0.76,0.46 1.3,0.75 1.93,1.15 1,0.61 1.87,1.28 2.8,1.91 0.7,0.48 1.41,0.94 2.09,1.43 1.72,1.23 3.39,2.52 5,3.84 0.44,0.35 0.9,0.69 1.33,1 l 0.41,0.32 q 2.88,2.43 5.58,5.07 c 0.32,0.31 0.61,0.65 0.93,1 1.3,1.3 2.6,2.61 3.84,4 0.24,0.26 0.45,0.55 0.69,0.82 0.59,0.67 1.15,1.38 1.72,2.07 1.15,1.38 2.27,2.78 3.36,4.23 0.6,0.81 1.18,1.63 1.76,2.46 1,1.43 2,2.91 2.93,4.41 0.55,0.86 1.1,1.73 1.62,2.61 1,1.64 1.88,3.33 2.78,5 0.42,0.8 0.86,1.58 1.27,2.41 1.26,2.56 2.46,5.19 3.57,7.92 v -93 c 0,-33.25 -16.52,-64.33 -43.9,-80.94 m 28.21,172.62 -1.1,-2.1 c -0.77,-1.47 -1.57,-3 -2.42,-4.38 l -1.19,-1.94 c -1,-1.63 -1.87,-2.9 -2.74,-4.14 -0.49,-0.69 -1,-1.38 -1.48,-2.06 -1,-1.29 -1.94,-2.51 -2.94,-3.7 l -2.14,-2.57 c -1,-1.1 -2.1,-2.22 -3.22,-3.34 l -0.83,-0.86 c -1.53,-1.5 -3.14,-3 -4.81,-4.38 l -1.57,-1.22 c -1.4,-1.14 -2.86,-2.26 -4.37,-3.34 l -4.23,-2.8 -5.62,-3.31 -4.66,-2.4 c -1.79,-0.89 -3.66,-1.74 -5.57,-2.56 l -2,-0.88 c -4.09,-1.68 -8.6,-3.27 -13.35,-4.69 l -2.83,-0.78 q -3.21,-0.9 -6.49,-1.68 l -5.3,-1.21 -5.62,-1 c -2.43,-0.43 -4.9,-0.83 -7.41,-1.18 l -0.93,-0.14 c -2.82,-0.38 -5.83,-0.56 -8.73,-0.85 v 121 c 0,13.06 8.34,24.5 20.33,27.88 a 26.17,26.17 0 0 0 20,-2.41 c 26.65,-15 58.81,-31.26 71.4,-60.48 l -7,-21.34 c -1,-2.41 -2,-4.72 -3.16,-7 M 499.86,302 C 449,271.17 367.58,274.75 274.53,291.26 c -29.57,5.25 -51.22,32.24 -51.22,63.79 v 38.53 c 38,-13.3 100.37,-21.81 161.07,-21.81 v 0 c 33.07,0 92.93,2.66 122.27,20.44 a 103.63,103.63 0 0 1 37.09,39.31 v -48.61 c 0,-33.25 -16.52,-64.33 -43.9,-80.93"
         id="path14" />
    </g>
  </g>
  <style
     type="text/css"
     id="style1662"><![CDATA[.x{font:20px verdana;fill:#fff;stroke:#555;stroke-width:20px;opacity:0.35;}.o{stroke:none;opacity:0.01;}]]></style>
  <g
     inkscape:groupmode="layer"
     id="layer1"
     inkscape:label="Layer 1" />
</svg>
