<svg xmlns="http://www.w3.org/2000/svg" xmlns:xlink="http://www.w3.org/1999/xlink" viewBox="0 0 2000 1000"><defs><style>.cls-1{fill:none;}.cls-2{isolation:isolate;}.cls-3{font-size:370px;fill:#3c3c3b;font-family:HelveticaNeue-Medium, Helvetica Neue;font-weight:500;}.cls-4{clip-path:url(#clip-path);}.cls-5{clip-path:url(#clip-path-3);}.cls-6{fill:url(#Ikke-navngivet_forløb_9);}.cls-7{clip-path:url(#clip-path-4);}.cls-8{fill:url(#Ikke-navngivet_forløb_9-2);}.cls-9{clip-path:url(#clip-path-5);}.cls-10{fill:url(#Ikke-navngivet_forløb_9-3);}.cls-11{clip-path:url(#clip-path-6);}.cls-12{mix-blend-mode:screen;}.cls-13{clip-path:url(#clip-path-7);}.cls-14{clip-path:url(#clip-path-8);}.cls-15{fill:url(#Ikke-navngivet_forløb_10);}.cls-16{mix-blend-mode:multiply;}.cls-17{clip-path:url(#clip-path-9);}.cls-18{clip-path:url(#clip-path-10);}.cls-19{fill:url(#Ikke-navngivet_forløb_11);}.cls-20{clip-path:url(#clip-path-11);}.cls-21{clip-path:url(#clip-path-12);}.cls-22{fill:url(#Ikke-navngivet_forløb_12);}.cls-23{clip-path:url(#clip-path-13);}.cls-24{clip-path:url(#clip-path-14);}.cls-25{fill:url(#Ikke-navngivet_forløb_14);}.cls-26{clip-path:url(#clip-path-15);}.cls-27{clip-path:url(#clip-path-16);}.cls-28{fill:url(#Ikke-navngivet_forløb_14-2);}.cls-29{clip-path:url(#clip-path-17);}.cls-30{fill:url(#Ikke-navngivet_forløb_9-4);}.cls-31{clip-path:url(#clip-path-19);}.cls-32{clip-path:url(#clip-path-20);}.cls-33{fill:url(#Ikke-navngivet_forløb_10-2);}.cls-34{clip-path:url(#clip-path-21);}.cls-35{clip-path:url(#clip-path-22);}.cls-36{fill:url(#Ikke-navngivet_forløb_11-2);}.cls-37{clip-path:url(#clip-path-23);}.cls-38{clip-path:url(#clip-path-24);}.cls-39{fill:url(#Ikke-navngivet_forløb_12-2);}.cls-40{clip-path:url(#clip-path-25);}.cls-41{clip-path:url(#clip-path-26);}.cls-42{fill:url(#Ikke-navngivet_forløb_14-3);}.cls-43{clip-path:url(#clip-path-27);}.cls-44{clip-path:url(#clip-path-28);}.cls-45{fill:url(#Ikke-navngivet_forløb_14-4);}</style><clipPath id="clip-path"><rect class="cls-1" x="-76.18" y="60.04" width="662.53" height="777.04"/></clipPath><clipPath id="clip-path-3"><path class="cls-1" d="M376.39,549.36a28.3,28.3,0,0,0,20.8,27.37,27.75,27.75,0,0,0,20.48-2.36c34.71-18.77,78.71-39.4,78.71-85.88-19.5-46.19-62.57-67-120-72.33Z"/></clipPath><linearGradient id="Ikke-navngivet_forløb_9" x1="-1.5" y1="0.47" x2="-1.15" y2="0.47" gradientTransform="matrix(353.09, -887.49, -887.49, -353.09, 1312.19, -491.89)" gradientUnits="userSpaceOnUse"><stop offset="0" stop-color="#00ffd7"/><stop offset="0.27" stop-color="#00cde5"/><stop offset="0.59" stop-color="#009af3"/><stop offset="0.83" stop-color="#007afc"/><stop offset="0.97" stop-color="#006eff"/><stop offset="1" stop-color="#006eff"/></linearGradient><clipPath id="clip-path-4"><path class="cls-1" d="M92.49,322.75c-34.71,18.77-78.71,39.4-78.71,85.88,19.5,46.19,62.57,67,120,72.33V347.76A28.29,28.29,0,0,0,113,320.39a27.79,27.79,0,0,0-20.47,2.36"/></clipPath><linearGradient id="Ikke-navngivet_forløb_9-2" x1="2.11" y1="0.23" x2="2.47" y2="0.23" gradientTransform="matrix(-353.09, 887.49, 887.49, 353.09, 687.81, -1730.34)" xlink:href="#Ikke-navngivet_forløb_9"/><clipPath id="clip-path-5"><path class="cls-1" d="M13.78,600.81c0,32.65,16.9,63.18,44.93,79.49,52,30.25,135.39,26.73,230.61,10.52,30.27-5.15,52.43-31.66,52.43-62.65v-92c0-38.86-34.27-68.63-72.33-62.8C146.64,492.19,46.67,486.55,13.78,408.63Z"/></clipPath><linearGradient id="Ikke-navngivet_forløb_9-3" x1="0.09" y1="-0.65" x2="0.42" y2="-0.65" gradientTransform="matrix(2104.87, 0.28, 0.28, -2104.87, -393.7, -803.55)" xlink:href="#Ikke-navngivet_forløb_9"/><clipPath id="clip-path-6"><rect class="cls-1" x="-76.18" y="60.04" width="662.53" height="777.04"/></clipPath><clipPath id="clip-path-7"><rect class="cls-1" x="13.78" y="408.64" width="327.97" height="189.04"/></clipPath><clipPath id="clip-path-8"><path class="cls-1" d="M58.71,579.48c46.83,27.24,211.14,22.23,283-4v-39a22.89,22.89,0,0,1-.18-5,63.41,63.41,0,0,0-14.34-35.92h0c-.62-.75-1.26-1.48-1.91-2.2l-.23-.26c-.6-.65-1.21-1.29-1.84-1.92l-.42-.43c-.59-.58-1.19-1.14-1.79-1.69l-.59-.54c-.58-.51-1.17-1-1.76-1.5l-.73-.6c-.57-.46-1.15-.91-1.74-1.34l-.86-.64c-.56-.41-1.14-.8-1.71-1.19l-1-.65c-.56-.36-1.12-.71-1.69-1.05l-1.1-.65q-.83-.48-1.68-.93l-1.2-.63c-.55-.28-1.11-.55-1.66-.81L304,478l-1.65-.7-1.4-.55c-.54-.21-1.08-.41-1.63-.6l-1.49-.49c-.53-.17-1.07-.35-1.61-.5s-1.05-.29-1.57-.43l-1.61-.41c-.54-.13-1.09-.24-1.64-.35l-1.6-.32c-.56-.1-1.14-.18-1.71-.27s-1.05-.16-1.58-.22-1.2-.13-1.79-.18-1-.11-1.55-.14-1.26-.06-1.9-.09c-.49,0-1,0-1.49,0-.67,0-1.35,0-2,0-.47,0-.93,0-1.39,0-.76,0-1.52.09-2.29.15l-1.17.08c-1.16.12-2.32.26-3.49.44C146.64,492.19,46.67,486.55,13.78,408.63V500c0,32.65,16.9,63.18,44.93,79.49"/></clipPath><linearGradient id="Ikke-navngivet_forløb_10" x1="1.22" y1="-0.31" x2="1.57" y2="-0.31" gradientTransform="matrix(-1868.09, -0.53, -0.53, 1868.09, 2910.82, 1089.23)" gradientUnits="userSpaceOnUse"><stop offset="0" stop-color="#fff"/><stop offset="0" stop-color="#fff"/><stop offset="0.45" stop-color="#8e8e8e"/><stop offset="1"/></linearGradient><clipPath id="clip-path-9"><rect class="cls-1" x="13.78" y="499.99" width="327.97" height="107.12"/></clipPath><clipPath id="clip-path-10"><path class="cls-1" d="M58.71,579.48c-28-16.31-44.93-46.84-44.93-79.49v9.44c0,32.65,16.9,63.18,44.93,79.48,46.83,27.25,211.14,22.24,283-4v-9.43c-71.9,26.24-236.21,31.25-283,4"/></clipPath><linearGradient id="Ikke-navngivet_forløb_11" x1="2.19" y1="-0.74" x2="2.54" y2="-0.74" gradientTransform="matrix(0.29, 811.22, 811.22, -0.29, 775.51, -1441.91)" gradientUnits="userSpaceOnUse"><stop offset="0" stop-color="#9e8ddf"/><stop offset="0.12" stop-color="#9e8ddf"/><stop offset="0.32" stop-color="#b5a8e6"/><stop offset="1" stop-color="#fff"/></linearGradient><clipPath id="clip-path-11"><rect class="cls-1" x="13.78" y="493.7" width="327.97" height="103.97"/></clipPath><clipPath id="clip-path-12"><path class="cls-1" d="M58.71,573.19c-28-16.31-44.93-46.84-44.93-79.49V500c0,32.65,16.9,63.18,44.93,79.49,46.83,27.24,211.14,22.23,283-4v-6.29c-71.9,26.24-236.21,31.25-283,4"/></clipPath><radialGradient id="Ikke-navngivet_forløb_12" cx="0" cy="0" r="1" gradientTransform="matrix(176.86, 0, 0, -178.53, 67.16, 713.58)" xlink:href="#Ikke-navngivet_forløb_10"/><clipPath id="clip-path-13"><rect class="cls-1" x="13.78" y="408.64" width="119.99" height="72.32"/></clipPath><clipPath id="clip-path-14"><path class="cls-1" d="M133.77,481l-.11-4.48c-88.85-3.43-119.88-67.85-119.88-67.85,19.5,46.19,62.57,67,120,72.33"/></clipPath><linearGradient id="Ikke-navngivet_forløb_14" x1="-1.02" y1="-1.42" x2="-0.68" y2="-1.42" gradientTransform="matrix(609.07, -432.25, -432.25, -609.07, -108.14, -723.88)" gradientUnits="userSpaceOnUse"><stop offset="0" stop-color="#9e8ddf"/><stop offset="0.12" stop-color="#9e8ddf"/><stop offset="1" stop-color="#fff"/></linearGradient><clipPath id="clip-path-15"><rect class="cls-1" x="13.78" y="401.08" width="119.99" height="79.88"/></clipPath><clipPath id="clip-path-16"><path class="cls-1" d="M14.21,401.07a68.77,68.77,0,0,0-.43,7.56c19.5,46.19,62.57,67,120,72.33V450.07c-65.17,6.93-106.2-32.51-119.56-49"/></clipPath><linearGradient id="Ikke-navngivet_forløb_14-2" x1="-1.78" y1="-0.65" x2="-1.43" y2="-0.65" gradientTransform="matrix(324.59, -583.86, -583.86, -324.59, 175.54, -633)" xlink:href="#Ikke-navngivet_forløb_14"/><clipPath id="clip-path-17"><path class="cls-1" d="M220.84,206.3C190.56,211.45,168.41,238,168.41,269v92c0,38.86,34.27,68.63,72.32,62.8,122.79-18.81,222.76-13.17,255.65,64.75V296.31c0-32.65-16.91-63.18-44.93-79.49S386.36,194,343.22,194c-37,0-78.42,4.77-122.38,12.26"/></clipPath><linearGradient id="Ikke-navngivet_forløb_9-4" x1="0.8" y1="0.83" x2="1.13" y2="0.83" gradientTransform="matrix(-2104.87, -0.28, -0.28, 2104.87, 2401.54, -1414.9)" xlink:href="#Ikke-navngivet_forløb_9"/><clipPath id="clip-path-19"><rect class="cls-1" x="168.41" y="299.45" width="327.97" height="189.04"/></clipPath><clipPath id="clip-path-20"><path class="cls-1" d="M451.45,317.64c-46.83-27.24-211.15-22.23-283,4v39a22.82,22.82,0,0,1,.18,5,63.41,63.41,0,0,0,14.34,35.93h0c.62.75,1.26,1.48,1.91,2.2l.23.26c.59.65,1.21,1.29,1.83,1.92l.43.43c.59.58,1.19,1.14,1.79,1.69l.59.54c.58.51,1.17,1,1.76,1.5.24.2.48.41.73.6.57.46,1.15.91,1.74,1.34.28.22.57.43.86.64.56.41,1.14.8,1.71,1.19l1,.65c.56.36,1.13.71,1.7,1.05l1.1.65q.82.48,1.68.93l1.2.63c.55.28,1.1.55,1.66.81l1.31.6,1.65.7,1.39.55c.55.2,1.09.41,1.64.6l1.49.49c.53.17,1.07.35,1.61.5s1,.29,1.57.43l1.61.41c.54.13,1.09.24,1.64.35l1.6.32c.56.1,1.14.18,1.71.27s1.05.16,1.58.22,1.19.13,1.79.18,1,.11,1.55.14,1.26.06,1.89.09,1,0,1.49,0c.68,0,1.36,0,2,0l1.39,0c.76,0,1.52-.09,2.28-.15l1.18-.08c1.16-.12,2.32-.26,3.48-.44,122.79-18.81,222.76-13.17,255.65,64.75V397.13c0-32.65-16.91-63.18-44.93-79.49"/></clipPath><linearGradient id="Ikke-navngivet_forløb_10-2" x1="-0.45" y1="0.48" x2="-0.1" y2="0.48" gradientTransform="matrix(1868.09, 0.53, 0.53, -1868.09, 726.25, 1281.78)" xlink:href="#Ikke-navngivet_forløb_10"/><clipPath id="clip-path-21"><rect class="cls-1" x="168.41" y="290.01" width="327.97" height="107.11"/></clipPath><clipPath id="clip-path-22"><path class="cls-1" d="M451.45,317.64c28,16.31,44.93,46.84,44.93,79.49v-9.44c0-32.65-16.91-63.18-44.93-79.48-46.83-27.25-211.15-22.24-283,4v9.43c71.89-26.24,236.21-31.25,283-4"/></clipPath><linearGradient id="Ikke-navngivet_forløb_11-2" x1="-1.65" y1="1.13" x2="-1.3" y2="1.13" gradientTransform="matrix(-0.29, -811.22, -811.22, 0.29, 1244.81, -770.52)" xlink:href="#Ikke-navngivet_forløb_11"/><clipPath id="clip-path-23"><rect class="cls-1" x="168.41" y="299.45" width="327.97" height="103.97"/></clipPath><clipPath id="clip-path-24"><path class="cls-1" d="M451.45,323.93c28,16.31,44.93,46.84,44.93,79.49v-6.29c0-32.65-16.91-63.18-44.93-79.49-46.83-27.24-211.15-22.23-283,4v6.29c71.89-26.24,236.21-31.25,283-4"/></clipPath><radialGradient id="Ikke-navngivet_forløb_12-2" cx="0" cy="0" r="1" gradientTransform="matrix(-176.86, 0, 0, 178.53, 442.99, 183.54)" xlink:href="#Ikke-navngivet_forløb_10"/><clipPath id="clip-path-25"><rect class="cls-1" x="376.39" y="416.16" width="119.99" height="72.32"/></clipPath><clipPath id="clip-path-26"><path class="cls-1" d="M376.39,416.16l.11,4.48c88.84,3.43,119.88,67.85,119.88,67.85-19.5-46.19-62.57-67-120-72.33"/></clipPath><linearGradient id="Ikke-navngivet_forløb_14-3" x1="3.02" y1="0.83" x2="3.36" y2="0.83" gradientTransform="matrix(-609.07, 432.25, 432.25, 609.07, 2108.14, -1498.35)" xlink:href="#Ikke-navngivet_forløb_14"/><clipPath id="clip-path-27"><rect class="cls-1" x="376.39" y="416.16" width="119.99" height="79.88"/></clipPath><clipPath id="clip-path-28"><path class="cls-1" d="M496,496a68.45,68.45,0,0,0,.43-7.55c-19.5-46.19-62.57-67-120-72.33v30.89c65.17-6.93,106.2,32.51,119.56,49"/></clipPath><linearGradient id="Ikke-navngivet_forløb_14-4" x1="3.38" y1="-0.33" x2="3.74" y2="-0.33" gradientTransform="matrix(-324.58, 583.86, 583.86, 324.58, 1824.46, -1589.22)" xlink:href="#Ikke-navngivet_forløb_14"/></defs><g class="cls-2"><g id="Lag_1" data-name="Lag 1"><text class="cls-3" transform="translate(559.37 574.76) scale(0.93 1)">Softcorp</text><g class="cls-4"><g class="cls-4"><g class="cls-5"><polygon class="cls-6" points="323.53 556.4 392.79 372.66 549.24 438.36 479.98 622.1 323.53 556.4"/></g><g class="cls-7"><polygon class="cls-8" points="186.33 341.49 117.37 524.46 -38.79 458.88 30.18 275.91 186.33 341.49"/></g><g class="cls-9"><rect class="cls-10" x="13.44" y="408.22" width="328.65" height="302.74" transform="translate(-1.4 0.45) rotate(-0.14)"/></g><g class="cls-11"><g class="cls-12"><g class="cls-13"><g class="cls-14"><rect class="cls-15" x="77.79" y="343.19" width="199.95" height="328.98" transform="translate(-330.81 682.85) rotate(-89.71)"/></g></g></g><g class="cls-16"><g class="cls-17"><g class="cls-18"><rect class="cls-19" x="13.4" y="498.8" width="328.72" height="118.55" transform="translate(-3.64 1.17) rotate(-0.37)"/></g></g></g><g class="cls-12"><g class="cls-20"><g class="cls-21"><rect class="cls-22" x="13.78" y="493.7" width="327.97" height="113.02"/></g></g></g><g class="cls-16"><g class="cls-23"><g class="cls-24"><polygon class="cls-25" points="-18.56 432.86 93.58 348.86 166.11 456.73 53.97 540.74 -18.56 432.86"/></g></g></g><g class="cls-16"><g class="cls-26"><g class="cls-27"><polygon class="cls-28" points="-18.36 462.1 42.11 347.29 165.91 419.94 105.44 534.75 -18.36 462.1"/></g></g></g></g><g class="cls-29"><rect class="cls-30" x="168.08" y="193.62" width="328.64" height="295.27" transform="translate(-0.85 0.83) rotate(-0.14)"/></g><g class="cls-11"><g class="cls-12"><g class="cls-31"><g class="cls-32"><rect class="cls-33" x="232.42" y="224.95" width="199.95" height="328.98" transform="translate(-58.74 719.84) rotate(-89.71)"/></g></g></g><g class="cls-16"><g class="cls-34"><g class="cls-35"><rect class="cls-36" x="168.03" y="279.77" width="328.72" height="118.55" transform="translate(-2.2 2.18) rotate(-0.37)"/></g></g></g><g class="cls-12"><g class="cls-37"><g class="cls-38"><rect class="cls-39" x="168.41" y="290.4" width="327.97" height="113.02"/></g></g></g><g class="cls-16"><g class="cls-40"><g class="cls-41"><polygon class="cls-42" points="528.72 464.26 416.58 548.26 344.05 440.39 456.19 356.38 528.72 464.26"/></g></g></g><g class="cls-16"><g class="cls-43"><g class="cls-44"><polygon class="cls-45" points="528.52 435.02 468.05 549.83 344.25 477.19 404.72 362.38 528.52 435.02"/></g></g></g></g></g></g></g></g></svg>